<?xml version="1.0" encoding="utf-8"?>
<!-- Generator: Adobe Illustrator 22.1.0, SVG Export Plug-In . SVG Version: 6.00 Build 0)  -->
<svg version="1.1" id="Layer_1" xmlns="http://www.w3.org/2000/svg" xmlns:xlink="http://www.w3.org/1999/xlink" x="0px" y="0px"
	 viewBox="0 0 434 67" style="enable-background:new 0 0 434 67;" xml:space="preserve">
<style type="text/css">
	.st0{fill:#FFFFFF;fill-opacity:0;}
	.st1{fill:#344251;}
	.st2{fill:#E35805;}
	.st3{fill:#FFDA00;}
	.st4{fill:#F5A500;}
</style>
<title>logo_leads_default</title>
<g id="Layer_5">
	<rect y="-0.5" class="st0" width="434" height="68.1"/>
	<g>
		<g>
			<path class="st1" d="M99.7,10.7h8.5v37.8h17.9v7H99.7V10.7z"/>
			<path class="st1" d="M144.9,22.1c8.5,0,14.3,6.7,14.3,16.2c0,0.9,0,2-0.1,3.1h-22c0.5,4.9,4.4,8.3,9.9,8.3c3,0,6.3-1.1,9.7-3.1v7
				c-3.7,1.7-7.4,2.5-11,2.5c-9.8,0-16.7-7.2-16.7-17.3C128.8,29.1,135.6,22.1,144.9,22.1z M151.2,36.1c-0.3-4.4-2.9-7.5-6.6-7.5
				c-4,0-7.2,3-7.5,7.5H151.2z"/>
			<path class="st1" d="M183.3,52.8c-2.9,2.2-6,3.4-9.4,3.4c-6,0-10.3-4-10.3-9.7c0-6.8,6.4-11.4,15.7-11.4c1.3,0,2.6,0.1,4,0.1
				v-1.5c0-3.1-2.5-5.1-6.1-5.1c-3.4,0-7.1,1-10.8,3.1v-6.9c4-1.8,7.9-2.7,11.8-2.7c7.9,0,13.1,4.9,13.1,12v21.3h-7.9V52.8z
				 M176.7,49.8c2.3,0,4.6-1.2,6.6-3.2v-6.4c-1.2-0.1-2.3-0.2-3.6-0.2c-4.7,0-7.9,2.2-7.9,5.3C171.8,47.9,173.8,49.8,176.7,49.8z"/>
			<path class="st1" d="M229.2,55.4h-8.4v-2.3c-2.5,2-5.4,3.1-8.3,3.1c-8.6,0-14.7-7-14.7-17s6-17,14.7-17c2.9,0,5.7,1,8.3,3V8.7
				h8.4V55.4z M214.4,49c2.3,0,4.6-1,6.4-2.9V32.2c-1.9-1.9-4.2-2.9-6.4-2.9c-4.7,0-8,4-8,9.9S209.6,49,214.4,49z"/>
			<path class="st1" d="M237,46.6c3.1,1.9,6.3,3,9.4,3c2.9,0,4.9-1.5,4.9-3.6c0-5.5-15.1-2.5-15.1-13.9c0-5.9,5.1-10,12.4-10
				c3.1,0,6.2,0.6,9.2,1.9v7.2c-2.8-1.7-5.8-2.5-8.6-2.5c-2.7,0-4.7,1.4-4.7,3.3c0,5.2,15.1,2.3,15.1,13.9c0,6-5.2,10.3-12.7,10.3
				c-3.3,0-6.6-0.8-9.9-2.2V46.6z"/>
		</g>
		<g>
			<path class="st2" d="M56.3,35.6c-4.6,5.1-8.7,10.6-12.2,16.5c-1,1.7-2,3.4-2.9,5.2c0,0.1-0.1,0.1-0.1,0.2c-0.6,1.2-1.9,2-3.3,2
				c-1.4,0-2.7-0.8-3.3-2c0-0.1-0.1-0.1-0.1-0.2c-0.9-1.8-1.9-3.6-2.9-5.3c-3.5-5.9-7.6-11.4-12.2-16.4H56.3z"/>
			<path class="st3" d="M75,12.3c-1.8,3-3.8,6-5.9,8.8H6.4c-2.1-2.8-4-5.8-5.8-8.8C-1,9.8,0.9,6.6,3.8,6.6h67.9
				C74.7,6.6,76.5,9.8,75,12.3z"/>
			<path class="st4" d="M69.1,21.1c-2.8,3.7-5.8,7.2-9,10.5c-0.4,0.4-0.8,0.8-1.1,1.1c-0.7,0.7-1.3,1.4-2,2.1c0,0,0,0,0,0
				c-0.2,0.3-0.5,0.5-0.7,0.8H19.2c-0.1-0.1-0.2-0.2-0.3-0.4c-0.9-1-1.8-1.9-2.7-2.8c0,0,0,0,0,0c-3.5-3.5-6.8-7.3-9.8-11.3H69.1z"
				/>
		</g>
	</g>
</g>
</svg>
