<svg id="Layer_1" data-name="Layer 1" xmlns="http://www.w3.org/2000/svg" xmlns:xlink="http://www.w3.org/1999/xlink" viewBox="0 0 76 63"><defs><style>.cls-1{fill:none;}.cls-2{fill:#8fdefe;}.cls-3{fill:url(#linear-gradient);}.cls-4{fill:#02aaee;}</style><linearGradient id="linear-gradient" x1="54.26" y1="940.6" x2="34.4" y2="981.87" gradientTransform="translate(-1.03 -933.5)" gradientUnits="userSpaceOnUse"><stop offset="0" stop-color="#55a0fe"/><stop offset="0.81" stop-color="#0162dd"/></linearGradient></defs><title>logo_dealerships_default_without_text</title><rect class="cls-1" width="76" height="63"/><g id="Layer_2" data-name="Layer 2"><path class="cls-2" d="M55.45,14.71a12.9,12.9,0,0,1-.34,2.84l-.08.33L54.27,21H30.66l-.3-.5-9-15a3,3,0,0,1,1.09-4.09A3.23,3.23,0,0,1,23.9,1H41.73A13.31,13.31,0,0,1,55.45,13.89h0Z"/><path class="cls-3" d="M7.91,46.77a3,3,0,0,1,.91-4.14l.09-.06a3.13,3.13,0,0,1,1.54-.45h28a13.45,13.45,0,0,0,13-10l.12-.45v-.08l.75-3,1-4.17h0L54.25,21,55,17.84l.08-.33a13.73,13.73,0,0,0,.34-3A13.48,13.48,0,0,0,42,1h6A20.62,20.62,0,0,1,68.56,21v.61a19.49,19.49,0,0,1-.24,3.05l-.18,1.08-2,8.26-.74,2.76v.13L64,42.12A30,30,0,0,1,45.14,60.59l-.62.19A29,29,0,0,1,36.19,62H18.84a3,3,0,0,1-2.59-1.49Z"/><path class="cls-4" d="M54.27,21l-.82,3.43h0l-1,4.17-.75,3v.08l-.12.45a13.47,13.47,0,0,1-13,9.95H24.88L19.34,33h0l-4.51-7.43a3,3,0,0,1,1-4.12l.07-.05a3.22,3.22,0,0,1,1.55-.4Z"/></g></svg>