<?xml version="1.0" encoding="utf-8"?>
<!-- Generator: Adobe Illustrator 22.1.0, SVG Export Plug-In . SVG Version: 6.00 Build 0)  -->
<svg version="1.1" id="Layer_1" xmlns="http://www.w3.org/2000/svg" xmlns:xlink="http://www.w3.org/1999/xlink" x="0px" y="0px"
	 viewBox="0 0 434 67" style="enable-background:new 0 0 434 67;" xml:space="preserve">
<style type="text/css">
	.st0{fill:#FFFFFF;fill-opacity:0;}
	.st1{fill:#8FDEFE;}
	.st2{fill:url(#SVGID_1_);}
	.st3{fill:#02AAEE;}
	.st4{fill:#344251;}
</style>
<title>logo_dealership_default</title>
<g id="Layer_5">
	<rect class="st0" width="434" height="67"/>
</g>
<g id="Layer_2_1_">
	<path class="st1" d="M54.7,13.7c0,1-0.1,1.9-0.3,2.8l-0.1,0.3L53.5,20H29.9l-0.3-0.5l-9-15c-0.8-1.4-0.3-3.3,1.1-4.1
		C22.1,0.2,22.6,0,23.2,0H41c7.3-0.2,13.5,5.5,13.7,12.9l0,0C54.7,13.2,54.7,13.4,54.7,13.7z"/>
	
		<linearGradient id="SVGID_1_" gradientUnits="userSpaceOnUse" x1="53.4997" y1="-871.5983" x2="33.6397" y2="-912.8683" gradientTransform="matrix(1 0 0 -1 -1.03 -865.5)">
		<stop  offset="0" style="stop-color:#55A0FE"/>
		<stop  offset="0.81" style="stop-color:#0162DD"/>
	</linearGradient>
	<path class="st2" d="M7.2,45.8c-0.9-1.4-0.5-3.3,0.9-4.1c0,0,0.1,0,0.1-0.1c0.5-0.3,1-0.4,1.5-0.5h28c6.1,0,11.4-4.1,13-10l0.1-0.5
		v-0.1l0.8-3l1-4.2l0,0l0.9-3.4l0.8-3.2l0.1-0.3c0.2-1,0.3-2,0.3-3c0-7.4-6-13.5-13.4-13.5l0,0h6c11.1,0,20.2,8.9,20.6,20v0.6
		c0,1-0.1,2-0.2,3l-0.2,1.1L65.4,33l-0.7,2.8v0.1l-1.5,5.2c-3.1,8.7-10.1,15.6-18.9,18.5l-0.6,0.2C41,60.6,38.2,61,35.4,61H18.1
		c-1.1,0-2.1-0.6-2.6-1.5L7.2,45.8z"/>
	<path class="st3" d="M53.5,20l-0.8,3.4l0,0l-1,4.2l-0.8,3v0.1l-0.1,0.5c-1.6,5.9-6.9,9.9-13,10H24.1L18.6,32l0,0l-4.5-7.4
		c-0.9-1.4-0.4-3.3,1-4.1h0.1c0.5-0.3,1-0.4,1.6-0.4h36.7V20z"/>
	<path class="st4" d="M99.2,8.2h16.2c12.8,0,21.9,9.3,21.9,22.3s-9.1,22.3-21.8,22.3H99.2V8.2z M107.6,45.9h7.3
		c8,0,13.6-6.3,13.6-15.4s-5.6-15.4-13.6-15.4h-7.3V45.9z"/>
	<path class="st4" d="M158.4,19.6c8.5,0,14.3,6.7,14.3,16.2c0,1,0,2-0.1,3h-22c0.5,4.9,4.4,8.3,9.9,8.3c3.4-0.2,6.8-1.2,9.7-3V51
		c-3.4,1.6-7.2,2.5-11,2.5c-9.8,0-16.7-7.1-16.7-17.2C142.4,26.5,149.1,19.6,158.4,19.6z M164.7,33.5c-0.3-4.4-2.9-7.5-6.6-7.5
		c-4.1,0-7.1,3-7.5,7.5H164.7z"/>
	<path class="st4" d="M196.7,50.3c-2.6,2.1-5.9,3.3-9.3,3.4c-6,0-10.3-4-10.3-9.7c0-6.7,6.4-11.4,15.6-11.4c1.3,0,2.6,0.1,4.1,0.1
		v-1.5c0-3-2.5-5.1-6.1-5.1c-3.8,0.1-7.5,1.2-10.8,3.1v-6.9c3.7-1.7,7.7-2.7,11.8-2.7c7.9,0,13,4.9,13,11.9v21.3h-7.9L196.7,50.3z
		 M190.1,47.3c2.5-0.2,4.9-1.3,6.6-3.2v-6.4c-1.2-0.1-2.4-0.2-3.6-0.2c-4.7,0-7.8,2.2-7.8,5.3C185.3,45.3,187.3,47.2,190.1,47.3
		L190.1,47.3z"/>
	<path class="st4" d="M213.5,6.2h8.3v46.6h-8.3V6.2z"/>
	<path class="st4" d="M244.7,19.6c8.5,0,14.3,6.7,14.3,16.2c0,1,0,2-0.1,3h-22c0.5,4.9,4.4,8.3,9.9,8.3c3.4-0.2,6.8-1.2,9.7-3V51
		c-3.4,1.6-7.2,2.5-11,2.5c-9.8,0-16.7-7.1-16.7-17.2C228.7,26.5,235.4,19.6,244.7,19.6z M251,33.5c-0.3-4.4-2.9-7.5-6.6-7.5
		c-4.1,0-7.1,3-7.5,7.5H251z"/>
	<path class="st4" d="M265.5,20.4h8.3v3.2c2-2.4,4.9-3.9,8-4.1c0.9,0,1.8,0.1,2.7,0.3v7.4c-1-0.3-1.9-0.4-2.9-0.4
		c-3.1,0.2-6,1.7-7.8,4.2v21.7h-8.3L265.5,20.4z"/>
	<path class="st4" d="M289.5,44c2.8,1.9,6.1,2.9,9.4,3c2.9,0,4.9-1.5,4.9-3.6c0-5.4-15-2.5-15-13.9c0-5.9,5.1-10,12.4-10
		c3.2,0,6.3,0.7,9.2,1.9v7.2c-2.6-1.6-5.6-2.5-8.6-2.5c-2.7,0-4.7,1.4-4.7,3.3c0,5.2,15.1,2.3,15.1,13.9c0,6-5.2,10.2-12.7,10.2
		c-3.4,0-6.8-0.8-9.9-2.2L289.5,44L289.5,44z"/>
	<path class="st4" d="M319.1,6.2h8.3v17c2.7-2.2,6-3.5,9.5-3.6c6.7,0,11.5,4.8,11.5,11.7v21.5H340v-20c0.2-3.1-2.1-5.7-5.2-5.9h-0.1
		c-0.1,0-0.3,0-0.4,0c-2.7,0.1-5.2,1.4-6.9,3.4v22.5H319L319.1,6.2z"/>
	<path class="st4" d="M361.3,6.7c2.5-0.1,4.6,1.9,4.7,4.4l0,0v0.4c-0.2,2.6-2.4,4.6-5,4.4c-2.4-0.2-4.3-2.1-4.4-4.4
		c-0.1-2.5,1.8-4.6,4.3-4.7l0,0L361.3,6.7z M357.1,20.4h8.3v32.5h-8.3V20.4z"/>
	<path class="st4" d="M374.5,20.4h8.3v2.2c2.3-1.9,5.2-2.9,8.2-3c8.7,0,14.6,7,14.6,17s-6,17-14.6,17c-3-0.1-5.9-1.1-8.2-3V67h-8.3
		V20.4z M389.4,26.7c-2.5,0.1-4.8,1.1-6.5,2.9v13.9c1.7,1.8,4,2.9,6.5,2.9c4.7,0,7.9-4.1,7.9-9.9S394,26.7,389.4,26.7z"/>
	<path class="st4" d="M411.4,44c2.8,1.9,6,2.9,9.4,3c3,0,5-1.5,5-3.5c0-5.4-15-2.5-15-13.9c0-5.9,5.1-10,12.4-10
		c3.2,0,6.3,0.7,9.2,1.9v7.2c-2.6-1.6-5.6-2.5-8.6-2.5c-2.7,0-4.7,1.4-4.7,3.3c0,5.2,15,2.3,15,13.9c0,6-5.2,10.2-12.7,10.2
		c-3.4,0-6.8-0.8-9.9-2.2L411.4,44z"/>
</g>
</svg>
