<svg id="Layer_1" data-name="Layer 1" xmlns="http://www.w3.org/2000/svg" xmlns:xlink="http://www.w3.org/1999/xlink" viewBox="0 0 76 63"><defs><style>.cls-1{fill:none;}.cls-2{fill:url(#linear-gradient);}.cls-3{fill:#ff5151;}.cls-4{fill:#f5a500;}.cls-5{fill:#26c53a;}</style><linearGradient id="linear-gradient" x1="37.6" y1="968.16" x2="34.88" y2="1011.02" gradientTransform="translate(0.13 -947.35)" gradientUnits="userSpaceOnUse"><stop offset="0.24" stop-color="#02aaee"/><stop offset="0.79" stop-color="#0162dd"/></linearGradient></defs><title>logo_icarsuite_default_without_text</title><rect class="cls-1" width="76" height="63"/><path class="cls-2" d="M43.61,58.19H8.27a1.81,1.81,0,0,1-1.82-1.82,1,1,0,0,1,0-.24l.33-2.7A12,12,0,0,1,18.69,42.94h21.8a3.19,3.19,0,0,0,3.14-2.78h0a.91.91,0,0,0-.81-1h-21A11.57,11.57,0,0,1,10.18,27.64v-.06a10.52,10.52,0,0,1,.1-1.48l.09-.71a1.71,1.71,0,0,1,1.71-1.51H56.86A9.14,9.14,0,0,1,66,33c0,.37,0,.74-.07,1.11l-.64,5h0A21.84,21.84,0,0,1,43.61,58.19Z"/><path class="cls-3" d="M34.66,4.81,27,20.05H12.85a1.39,1.39,0,0,1-1.4-1.38h0v-.18l.23-1.79A13.61,13.61,0,0,1,25.18,4.81Z"/><polygon class="cls-4" points="53.7 4.81 46.08 20.05 27.03 20.05 34.66 4.81 53.7 4.81"/><path class="cls-5" d="M69.53,7.18l-.12,1a13.6,13.6,0,0,1-13.5,11.87H46.08L53.7,4.81H67.45a2.07,2.07,0,0,1,2.11,2A2.19,2.19,0,0,1,69.53,7.18Z"/></svg>