<?xml version="1.0" encoding="utf-8"?>
<!-- Generator: Adobe Illustrator 22.1.0, SVG Export Plug-In . SVG Version: 6.00 Build 0)  -->
<svg version="1.1" id="Layer_1" xmlns="http://www.w3.org/2000/svg" xmlns:xlink="http://www.w3.org/1999/xlink" x="0px" y="0px"
	 viewBox="0 0 434 67" style="enable-background:new 0 0 434 67;" xml:space="preserve">
<style type="text/css">
	.st0{fill:#FFFFFF;fill-opacity:0;}
	.st1{fill:#1D942B;}
	.st2{fill:#ADEFB5;}
	.st3{fill:#3AD94E;}
	.st4{fill:#26C53A;}
	.st5{fill:#6BE27A;}
	.st6{fill:#DEF9E2;}
	.st7{fill:#344251;}
</style>
<title>logo_data_default</title>
<g id="Layer_5">
	<rect class="st0" width="434" height="67"/>
	<g id="Layer_4_1_">
		<rect x="47.7" y="23.3" class="st1" width="20.3" height="40.7"/>
		<path class="st2" d="M47.7,33.5H27.4V16.9c0-2,1.6-3.7,3.7-3.7l0,0h16.7v20.3H47.7z"/>
		<rect x="7" y="43.7" class="st3" width="20.3" height="20.3"/>
		<rect x="27.3" y="33.5" class="st4" width="20.3" height="30.5"/>
		<path class="st5" d="M68.1,23.3H47.7V7.1c0-2.3,1.8-4.1,4.1-4.1h16.3V23.3z"/>
		<path class="st6" d="M27.4,43.7H7V27.4c0-2.3,1.8-4.1,4.1-4.1l0,0h16.3V43.7z"/>
		<path class="st7" d="M99.5,11.2h16.2c12.8,0,21.9,9.3,21.9,22.4S128.4,56,115.7,56H99.5V11.2z M107.9,48.9h7.3
			c8.1,0,13.6-6.3,13.6-15.4s-5.6-15.4-13.6-15.4h-7.3V48.9z"/>
		<path class="st7" d="M162.4,53.2c-2.7,2.1-6,3.3-9.4,3.4c-6,0-10.3-4-10.3-9.7c0-6.8,6.4-11.4,15.7-11.4c1.3,0,2.6,0.1,4,0.1v-1.5
			c0-3-2.5-5.1-6.1-5.1c-3.8,0.1-7.5,1.2-10.8,3.1v-6.9c3.7-1.7,7.7-2.6,11.8-2.7c7.9,0,13.1,4.9,13.1,12v21.3h-7.9L162.4,53.2z
			 M155.8,50.2c2.5-0.2,4.9-1.3,6.6-3.2v-6.4c-1.2-0.1-2.4-0.2-3.6-0.2c-4.7,0-7.9,2.2-7.9,5.3C151,48.4,153,50.2,155.8,50.2
			L155.8,50.2z"/>
		<path class="st7" d="M188.7,23.4h9.4v6.7h-9.4v15c-0.1,2.5,1.8,4.5,4.3,4.6l0,0h0.4c1.6-0.1,3.2-0.5,4.6-1.3v6.9
			c-2.2,0.9-4.5,1.3-6.8,1.3c-6.4,0-10.8-4.3-10.8-10.5v-16h-5.6v-6.7h5.6v-9.2h8.3V23.4z"/>
		<path class="st7" d="M222.6,53.2c-2.7,2.1-5.9,3.3-9.4,3.4c-6,0-10.3-4-10.3-9.7c0-6.8,6.4-11.4,15.7-11.4c1.3,0,2.6,0.1,4,0.1
			v-1.5c0-3-2.5-5.1-6.1-5.1c-3.8,0.1-7.5,1.1-10.8,3.1v-6.9c3.7-1.7,7.7-2.6,11.8-2.7c7.9,0,13.1,4.9,13.1,12v21.3h-7.9v-2.6H222.6
			z M215.9,50.2c2.5-0.2,4.9-1.3,6.6-3.2v-6.4c-1.2-0.1-2.4-0.2-3.6-0.2c-4.7,0-7.9,2.2-7.9,5.3C211.1,48.4,213.1,50.2,215.9,50.2
			L215.9,50.2z"/>
	</g>
</g>
</svg>
