<svg id="Layer_1" data-name="Layer 1" xmlns="http://www.w3.org/2000/svg" xmlns:xlink="http://www.w3.org/1999/xlink" viewBox="0 0 360 53.29"><defs><style>.cls-1{fill:url(#linear-gradient);}.cls-2{fill:#ff5151;}.cls-3{fill:#f5a500;}.cls-4{fill:#26c53a;}.cls-5{fill:#344251;}</style><linearGradient id="linear-gradient" x1="31.12" y1="36.68" x2="28.4" y2="-6.13" gradientTransform="matrix(1, 0, 0, -1, 0.13, 59.5)" gradientUnits="userSpaceOnUse"><stop offset="0.24" stop-color="#02aaee"/><stop offset="0.79" stop-color="#0162dd"/></linearGradient></defs><title>logo_icarsuite_default</title><path class="cls-1" d="M37.11,60.15H1.82A1.82,1.82,0,0,1,0,58.34a1,1,0,0,1,0-.24l.33-2.7a12,12,0,0,1,11.9-10.48H34a3.17,3.17,0,0,0,3.13-2.77h0a.91.91,0,0,0-.81-1h-21A11.55,11.55,0,0,1,3.73,29.59a10.41,10.41,0,0,1,.1-1.48l.09-.71a1.71,1.71,0,0,1,1.71-1.51H50.35A9.12,9.12,0,0,1,59.46,35a10.34,10.34,0,0,1-.07,1.11l-.64,5h0A21.8,21.8,0,0,1,37.11,60.15Z" transform="translate(0 -6.85)"/><path class="cls-2" d="M28.18,6.85,20.56,22.07H6.4A1.39,1.39,0,0,1,5,20.68a1.09,1.09,0,0,1,0-.18l.23-1.79A13.59,13.59,0,0,1,18.71,6.85Z" transform="translate(0 -6.85)"/><polygon class="cls-3" points="47.19 0 39.58 15.22 20.56 15.22 28.18 0 47.19 0"/><path class="cls-4" d="M63,9.21l-.12,1A13.59,13.59,0,0,1,49.4,22.07H39.58L47.19,6.85H60.92a2.06,2.06,0,0,1,2.11,2A2.19,2.19,0,0,1,63,9.21Z" transform="translate(0 -6.85)"/><path class="cls-5" d="M97.21,11a3.66,3.66,0,0,1,3.86,3.47c0,.11,0,.22,0,.33a3.87,3.87,0,0,1-7.73,0A3.67,3.67,0,0,1,96.89,11ZM94,23.85h6.43V56H94Z" transform="translate(0 -6.85)"/><path class="cls-5" d="M129.66,11a27.31,27.31,0,0,1,12.48,3.22v6.15a21.26,21.26,0,0,0-11.52-3.75c-9.14,0-15.44,7.17-15.44,17.32s6.3,17.31,15.44,17.31a21.39,21.39,0,0,0,11.52-3.79v6.15a27.55,27.55,0,0,1-12.48,3.21c-12.49,0-21.31-9.53-21.31-22.91S117.17,11,129.66,11Z" transform="translate(0 -6.85)"/><path class="cls-5" d="M167.7,53.07a15.91,15.91,0,0,1-9.84,3.73c-5.93,0-10.11-3.86-10.11-9.33,0-6.63,6.24-11.27,15.37-11.27,1.55,0,3.08.06,4.64.19V34.21c0-3.54-2.83-6.05-6.83-6.05a21.25,21.25,0,0,0-10.36,3V25.65a26.08,26.08,0,0,1,11.08-2.57c7.4,0,12.3,4.69,12.3,11.32V56H167.8Zm-7.91-1.36c2.7,0,5.47-1.35,7.91-3.85V40.52c-1.41-.13-2.76-.19-4.24-.19-5.53,0-9.27,2.57-9.27,6.24C154.19,49.59,156.5,51.71,159.79,51.71Z" transform="translate(0 -6.85)"/><path class="cls-5" d="M183.42,23.85h6.43v3.6a10.62,10.62,0,0,1,11.4-4v5.86a10,10,0,0,0-3.16-.51c-2.9,0-5.92,1.67-8.2,4.63V56h-6.43Z" transform="translate(0 -6.85)"/><path class="cls-5" d="M214.5,46.06a23,23,0,0,0,12.36,4c4.89,0,8.2-2.57,8.2-6.3,0-9.08-21.52-4.64-21.52-20,0-7.59,6.5-12.81,15.83-12.81a31.81,31.81,0,0,1,11.91,2.44v7.67A22,22,0,0,0,230,17.73c-4.71,0-8,2.39-8,5.92,0,8.82,21.52,4.38,21.52,20,0,7.78-6.69,13.19-16.09,13.19a30.67,30.67,0,0,1-12.94-3Z" transform="translate(0 -6.85)"/><path class="cls-5" d="M279.71,56h-8.3V53.2a14.79,14.79,0,0,1-9.34,3.6c-6.76,0-11.45-4.83-11.45-11.59V23.85h8.2V43.74a5.56,5.56,0,0,0,5.26,5.85h.46c2.44,0,4.76-1.22,6.89-3.41V23.85h8.3Z" transform="translate(0 -6.85)"/><path class="cls-5" d="M292.78,10.27a4.52,4.52,0,0,1,4.7,4.35,1.93,1.93,0,0,1,0,.34,4.7,4.7,0,0,1-9.39,0,4.47,4.47,0,0,1,4.27-4.69Zm-4.1,13.58h8.2V56h-8.2Z" transform="translate(0 -6.85)"/><path class="cls-5" d="M316.34,23.85h9.23v6.63h-9.23V45.35a4.43,4.43,0,0,0,4.28,4.57h.43a10.48,10.48,0,0,0,4.56-1.28v6.82a18.63,18.63,0,0,1-6.75,1.35c-6.3,0-10.75-4.31-10.75-10.37V30.48h-5.53V23.85h5.53V14.77h8.2Z" transform="translate(0 -6.85)"/><path class="cls-5" d="M345.83,23.08c8.43,0,14.16,6.62,14.16,16.09a23.79,23.79,0,0,1-.13,3H338c.51,4.89,4.37,8.2,9.79,8.2a19.82,19.82,0,0,0,9.58-3.07v6.88a26,26,0,0,1-10.94,2.5c-9.72,0-16.54-7.07-16.54-17.11C329.93,30,336.62,23.08,345.83,23.08Zm6.24,13.77c-.26-4.38-2.89-7.41-6.56-7.41-4,0-7.08,3-7.47,7.41Z" transform="translate(0 -6.85)"/></svg>