<?xml version="1.0" encoding="utf-8"?>
<!-- Generator: Adobe Illustrator 22.1.0, SVG Export Plug-In . SVG Version: 6.00 Build 0)  -->
<svg version="1.1" id="Layer_1" xmlns="http://www.w3.org/2000/svg" xmlns:xlink="http://www.w3.org/1999/xlink" x="0px" y="0px"
	 viewBox="0 0 434 67" style="enable-background:new 0 0 434 67;" xml:space="preserve">
<style type="text/css">
	.st0{fill:#FFFFFF;fill-opacity:0;}
	.st1{fill:#FFB3B3;}
	.st2{fill:#FF5151;}
	.st3{fill:url(#SVGID_1_);}
	.st4{fill:#344251;}
</style>
<title>logo_bid_default</title>
<g id="Layer_5">
	<rect class="st0" width="434" height="67"/>
	<g id="Layer_3_1_">
		<path class="st1" d="M70.1,6.5C69.5,12.8,68,19,65.5,24.9c-2,4.8-4.6,9.4-7.8,13.6l-0.6,0.8c-5,6.5-11.3,11.9-18.3,16l0,0
			c-9.6,5.5-20.5,8.4-31.6,8.4l18.5-18.5l5.9-5.9l7.1-7.1l7.3-7.3l3.3-3.3l16.9-17c0.9-0.9,2.3-0.9,3.2,0
			C69.9,5.2,70.1,5.9,70.1,6.5z"/>
		<path class="st2" d="M66.4,63.6c-9.8-0.6-19.2-3.4-27.7-8.3c7.1-4.1,13.3-9.5,18.3-16l0.6-0.8l0.4,0.8l10.5,21
			c0.6,1.1,0.1,2.5-1,3.1C67.3,63.5,66.8,63.6,66.4,63.6L66.4,63.6z"/>
		
			<linearGradient id="SVGID_1_" gradientUnits="userSpaceOnUse" x1="24.5606" y1="1892.4846" x2="31.1806" y2="1918.3646" gradientTransform="matrix(1 0 0 1 -1.18 -1868.48)">
			<stop  offset="0" style="stop-color:#FA0204"/>
			<stop  offset="0.57" style="stop-color:#DA0000"/>
		</linearGradient>
		<path class="st3" d="M49.3,21.6L46,24.9l-7.3,7.3l-7,7.1l-6,5.9L7.1,63.7H7l12.2-24.5l0.4-0.9l6.7-13.5L36.6,4.5
			c0.6-1.1,1.9-1.6,3.1-1c0.4,0.2,0.8,0.6,1,1L49.3,21.6z"/>
		<path class="st4" d="M99.9,11.3h16.8c7.7,0,13.1,5,13.1,11.8c0.1,4.3-2.3,8.2-6.2,9.9c4.7,1.3,7.9,5.6,7.9,10.5
			c0,7.1-5.7,12.2-13.6,12.2h-18V11.3z M107.9,30h7.2c3.9,0,6.6-2.5,6.6-6s-2.7-6-6.6-6h-7.2V30z M107.9,49.1h8.1c4.2,0,7-2.7,7-6.4
			s-2.8-6.4-7-6.4h-8.1V49.1z"/>
		<path class="st4" d="M143,9.9c2.5-0.1,4.6,1.9,4.7,4.4v0.3c-0.1,2.6-2.3,4.6-4.9,4.5c-2.4-0.1-4.4-2.1-4.5-4.5
			c-0.1-2.5,1.8-4.6,4.3-4.7C142.6,9.9,143,9.9,143,9.9z M138.9,23.5h8.2v32.2h-8.2V23.5z"/>
		<path class="st4" d="M185,55.6h-8.3v-2.2c-2.3,1.9-5.2,3-8.2,3c-8.6,0-14.6-7-14.6-16.9s6-16.9,14.6-16.9c3,0.1,5.9,1.1,8.2,3V9.4
			h8.3V55.6z M170.3,49.3c2.4-0.1,4.7-1.1,6.4-2.9V32.7c-1.6-1.8-3.9-2.9-6.4-2.9c-4.7,0-7.9,4-7.9,9.8S165.6,49.3,170.3,49.3z"/>
	</g>
</g>
</svg>
