<svg xmlns="http://www.w3.org/2000/svg"><symbol id="icon--add" viewBox="0 0 32 32"><path d="M26.667 17.504h-9.163v9.163h-3.008v-9.163H5.333v-3.008h9.163V5.333h3.008v9.163h9.163z"/></symbol><symbol id="icon--attachment" viewBox="0 0 32 32"><path d="M2.667 16.053c0-4.069 3.255-7.386 7.324-7.386h14.021c2.942 0 5.321 2.442 5.321 5.383s-2.379 5.321-5.321 5.321h-11.33c-1.816 0-3.38-1.502-3.38-3.318s1.565-3.38 3.38-3.38h10.015v2.692h-10.14c-.751 0-.751 1.315 0 1.315h11.455c1.44 0 2.692-1.19 2.692-2.629s-1.252-2.692-2.692-2.692H9.991c-2.567 0-4.695 2.128-4.695 4.695s2.128 4.632 4.695 4.632h12.707v2.692H9.991a7.293 7.293 0 01-7.324-7.324v-.001z"/></symbol><symbol id="icon--chat" viewBox="0 0 32 32"><path d="M21.359 16.281v-2.154h-2.154v2.154h2.154zm-4.307 0v-2.154h-2.103v2.154h2.103zm-4.257 0v-2.154h-2.154v2.154h2.154zm11.768-9.614c1.152 0 2.103.952 2.103 2.103v12.82c0 1.152-.952 2.154-2.103 2.154H9.59l-4.257 4.257V8.772c0-1.152.952-2.103 2.103-2.103l17.127-.001z"/></symbol><symbol id="icon--check-circle" viewBox="0 0 32 32"><path d="M13.847 21.358l9.615-9.615-1.502-1.553-8.112 8.112-3.806-3.806-1.502 1.502 5.308 5.359zM16 5.333c5.909 0 10.667 4.758 10.667 10.667S21.909 26.667 16 26.667 5.333 21.909 5.333 16 10.091 5.333 16 5.333z"/></symbol><symbol id="icon--check-success" viewBox="0 0 32 32"><path d="M27.503 15.27l-2.035-2.142.428-2.892a1.11 1.11 0 00-.857-1.285l-2.999-.428-1.392-2.57c-.321-.535-.964-.75-1.499-.428l-2.57 1.178-2.677-1.285c-.536-.214-1.178 0-1.392.428l-1.392 2.677-2.892.428c-.643.107-.964.75-.964 1.285l.428 2.892-2.035 2.142a1.036 1.036 0 000 1.499l2.035 2.142-.428 2.892a1.11 1.11 0 00.857 1.285l2.999.428 1.392 2.57c.321.535.964.75 1.499.428l2.677-1.285 2.677 1.285c.535.214 1.178 0 1.499-.428l1.392-2.57 2.892-.535c.535-.107.964-.643.857-1.285l-.428-2.892 2.035-2.142c.321-.321.321-.964-.107-1.392zm-12.21 5.462l-4.07-3.963 1.499-1.499 2.463 2.463 5.676-5.676 1.499 1.499-7.068 7.176z"/></symbol><symbol id="icon--check" viewBox="0 0 32 32"><path d="M12.104 20.856L24.96 8l1.707 1.707L12.104 24.27l-6.771-6.769 1.707-1.707z"/></symbol><symbol id="icon--checkbox-checked" viewBox="0 0 32 32"><path d="M24.296 5.333H7.704a2.37 2.37 0 00-2.371 2.371v16.592a2.37 2.37 0 002.371 2.371h16.592a2.37 2.37 0 002.371-2.371V7.704a2.37 2.37 0 00-2.371-2.371zM13.63 22.416l-5.578-5.578 1.675-1.675 3.903 3.903 8.643-8.643 1.675 1.675-10.319 10.319z"/></symbol><symbol id="icon--checkbox" viewBox="0 0 32 32"><path d="M24.296 7.704v16.592H7.704V7.704h16.592zm0-2.371H7.704a2.378 2.378 0 00-2.371 2.371v16.592a2.378 2.378 0 002.371 2.371h16.592a2.378 2.378 0 002.371-2.371V7.704a2.378 2.378 0 00-2.371-2.371z"/></symbol><symbol id="icon--close" viewBox="0 0 32 32"><path d="M26.667 7.481L18.148 16l8.519 8.519-2.148 2.148L16 18.148l-8.519 8.519-2.148-2.148L13.852 16 5.333 7.481l2.148-2.148L16 13.852l8.519-8.519z"/></symbol><symbol id="icon--compare" viewBox="0 0 32 32"><path d="M22.179 22.028v-4.845h2.366v7.211H10.122V28l-4.789-4.789 4.789-4.789v3.606l12.056.001zM10.123 9.972v4.845H7.757V7.606H22.18V4l4.789 4.789-4.789 4.789V9.972l-12.056-.001z"/></symbol><symbol id="icon--content-paste" viewBox="0 0 32 32"><path d="M23.783 25.851V8.35h-2.149v3.275H10.683V8.35H8.534v17.501h15.249zm-7.625-19.65c-.614 0-1.075.461-1.075 1.075s.461 1.075 1.075 1.075c.614 0 1.075-.461 1.075-1.075s-.461-1.075-1.075-1.075zm7.625 0c1.177 0 2.201.973 2.201 2.149v17.501c0 1.177-1.023 2.149-2.201 2.149H8.534c-1.177 0-2.201-.973-2.201-2.149V8.35c0-1.177 1.023-2.149 2.201-2.149h4.555C13.55 4.921 14.726 4 16.159 4s2.61.921 3.07 2.201h4.554z"/></symbol><symbol id="icon--cooperate" viewBox="0 0 32 32"><path d="M8.933 4a2.4 2.4 0 100 4.8 2.4 2.4 0 000-4.8zm14.401 0a2.4 2.4 0 100 4.8 2.4 2.4 0 000-4.8zM7.733 11.2a2.4 2.4 0 00-2.4 2.4V28h2.4v-7.2h2.4V28h2.4V16.204l3.6 3.602 3.6-3.602V28h2.4v-7.2h2.4V28h2.4V13.6a2.4 2.4 0 00-2.4-2.4h-2.4c-.668 0-1.269.273-1.704.713l-.002-.002-4.294 4.296-4.334-4.336-.005.005a2.385 2.385 0 00-1.662-.675H7.734z"/></symbol><symbol id="icon--cross-circle" viewBox="0 0 32 32"><path d="M16 5.333c-5.878 0-10.667 4.79-10.667 10.667S10.123 26.667 16 26.667c5.878 0 10.667-4.79 10.667-10.667S21.877 5.333 16 5.333zm6.731 15.894a7.654 7.654 0 01-1.504 1.504L16 17.504l-5.227 5.227a7.654 7.654 0 01-1.504-1.504L14.496 16l-5.227-5.227a7.654 7.654 0 011.504-1.504L16 14.496l5.227-5.227a7.654 7.654 0 011.504 1.504L17.504 16l5.227 5.227z"/></symbol><symbol id="icon--delete" viewBox="0 0 32 32"><path d="M25.291 5.313v2.688H6.667V5.313h4.625L12.667 4h6.625l1.375 1.313h4.625zM7.979 25.312V9.313h15.999v15.999c0 1.438-1.25 2.688-2.688 2.688H10.665c-1.438 0-2.688-1.25-2.688-2.688h.001z"/></symbol><symbol id="icon--exit" viewBox="0 0 32 32"><path d="M24.277 5.333c1.278 0 2.389 1.111 2.389 2.389v16.555c0 1.278-1.111 2.389-2.389 2.389H7.722c-1.333 0-2.389-1.111-2.389-2.389v-4.722h2.389v4.722h16.555V7.722H7.722v4.722H5.333V7.722c0-1.278 1.056-2.389 2.389-2.389h16.555zM13.722 20.278l3.056-3.111H5.334v-2.333h11.444l-3.056-3.111 1.667-1.667 5.945 5.945-5.945 5.945-1.667-1.668z"/></symbol><symbol id="icon--favorite-outline" viewBox="0 0 32 32"><path d="M16.113 24.038c5.746-5.183 9.521-8.62 9.521-12.113 0-2.423-1.803-4.169-4.226-4.169-1.86 0-3.662 1.183-4.282 2.817h-2.253c-.62-1.634-2.423-2.817-4.282-2.817-2.423 0-4.226 1.747-4.226 4.169 0 3.493 3.775 6.93 9.521 12.113l.113.113.113-.113zm5.295-18.704c3.718 0 6.592 2.874 6.592 6.592 0 4.564-4.056 8.225-10.253 13.859L16 27.362l-1.747-1.522C8.056 20.206 4 16.488 4 11.925c0-3.718 2.874-6.592 6.592-6.592 2.085 0 4.113 1.014 5.408 2.536 1.296-1.522 3.324-2.536 5.408-2.536v.001z"/></symbol><symbol id="icon--favorite" viewBox="0 0 32 32"><path d="M16 27.361l-1.747-1.577C8.056 20.15 4 16.488 4 11.925c0-3.718 2.874-6.592 6.592-6.592 2.085 0 4.113 1.014 5.408 2.536 1.296-1.522 3.324-2.536 5.408-2.536 3.718 0 6.592 2.874 6.592 6.592 0 4.564-4.056 8.282-10.253 13.915L16 27.361z"/></symbol><symbol id="icon--flag" viewBox="0 0 32 32"><path d="M18.42 7.86h7.052v12.517h-8.815l-.471-2.468H9.134v8.757H6.666V5.333H17.95z"/></symbol><symbol id="icon--invisible" viewBox="0 0 32 32"><path d="M8.246 21.924C5.245 19.38 4 16.06 4 16.06s3.273-8.727 12-8.727c2.3 0 4.221.606 5.803 1.499l3.821-3.69a1.332 1.332 0 111.852 1.918l-3.472 3.353C26.824 12.925 28 16.059 28 16.059s-3.273 8.727-12 8.727c-2.155 0-3.977-.532-5.5-1.333l-4.124 3.983a1.332 1.332 0 11-1.852-1.918l3.723-3.595zm10.775-10.405a5.456 5.456 0 00-7.666 7.403l1.633-1.577a3.273 3.273 0 014.4-4.249l1.633-1.577zm1.793 1.976l-1.68 1.622a3.273 3.273 0 01-4.188 4.044l-1.68 1.622a5.456 5.456 0 007.547-7.288z"/></symbol><symbol id="icon--mail" viewBox="0 0 32 32"><path d="M24.581 12.331v-2.165L16 15.539l-8.581-5.373v2.165L16 17.624l8.581-5.293zm0-4.331c1.123 0 2.085.962 2.085 2.165v12.832c0 1.123-.962 2.165-2.085 2.165H7.418c-1.123 0-2.085-.962-2.085-2.165V10.165C5.333 9.042 6.295 8 7.418 8h17.163z"/></symbol><symbol id="icon--open-window" viewBox="0 0 32 32"><path d="M18.389 5.333h8.278v8.278h-2.389V9.389L12.667 21 11 19.333 22.611 7.722h-4.222V5.333zm5.888 18.944v-8.278h2.389v8.278c0 1.278-1.111 2.389-2.389 2.389H7.722c-1.333 0-2.389-1.111-2.389-2.389V7.722c0-1.278 1.056-2.389 2.389-2.389H16v2.389H7.722v16.555h16.555z"/></symbol><symbol id="icon--pencil" viewBox="0 0 32 32"><path d="M22.64 5.333c-.287 0-.575.109-.794.329l-1.917 1.917 4.491 4.491 1.917-1.917a1.122 1.122 0 000-1.588l-2.903-2.904a1.118 1.118 0 00-.794-.329zm-4.395 3.93L5.333 22.175v4.491h4.491l12.912-12.912-4.491-4.491z"/></symbol><symbol id="icon--search" viewBox="0 0 32 32"><path d="M13.283 18.774a5.492 5.492 0 10-.002-10.98 5.492 5.492 0 00.002 10.98zm7.321 0l6.063 6.063-1.83 1.83-6.063-6.063v-.972l-.343-.343c-1.373 1.201-3.203 1.887-5.147 1.887-4.404 0-7.95-3.489-7.95-7.893s3.546-7.95 7.95-7.95c4.403 0 7.893 3.546 7.893 7.95 0 1.945-.686 3.774-1.887 5.147l.343.343h.972z"/></symbol><symbol id="icon--send" viewBox="0 0 32 32"><path d="M4.667 26.307v-7.983L21.81 16.02 4.667 13.716V5.733l24 10.285z"/></symbol><symbol id="icon--settings" viewBox="0 0 32 32"><path d="M16.071 19.756c2.053 0 3.756-1.702 3.756-3.756s-1.702-3.756-3.756-3.756c-2.053 0-3.756 1.702-3.756 3.756s1.702 3.756 3.756 3.756zm7.962-2.704l2.254 1.753c.2.151.251.451.1.701l-2.154 3.705c-.151.251-.401.3-.651.2l-2.654-1.052c-.551.401-1.152.801-1.803 1.052l-.401 2.804c-.05.251-.251.451-.501.451h-4.306c-.251 0-.451-.2-.501-.451l-.401-2.804a6.551 6.551 0 01-1.803-1.052l-2.654 1.052c-.251.1-.501.05-.651-.2l-2.154-3.705c-.151-.251-.1-.551.1-.701l2.254-1.753c-.05-.351-.05-.701-.05-1.052s0-.701.05-1.052l-2.254-1.753c-.2-.151-.251-.451-.1-.701l2.154-3.705c.151-.251.401-.3.651-.2l2.654 1.052c.551-.401 1.152-.801 1.803-1.052l.401-2.804c.05-.251.251-.451.501-.451h4.306c.251 0 .451.2.501.451l.401 2.804a6.551 6.551 0 011.803 1.052l2.654-1.052c.251-.1.501-.05.651.2l2.154 3.705c.151.251.1.551-.1.701l-2.254 1.753c.05.351.05.701.05 1.052s0 .701-.05 1.052z"/></symbol><symbol id="icon--share" viewBox="0 0 32 32"><path d="M23.111 20.867c1.889 0 3.444 1.556 3.444 3.444s-1.556 3.5-3.444 3.5c-1.889 0-3.444-1.612-3.444-3.5 0-.278 0-.556.056-.778l-8.389-4.889c-.667.612-1.5.945-2.444.945-1.945 0-3.556-1.612-3.556-3.556s1.612-3.556 3.556-3.556c.945 0 1.778.333 2.444.945l8.333-4.834c-.056-.278-.111-.556-.111-.834 0-1.945 1.612-3.556 3.556-3.556s3.556 1.612 3.556 3.556-1.612 3.556-3.556 3.556c-.945 0-1.778-.389-2.444-1l-8.333 4.889c.056.278.111.556.111.834s-.056.556-.111.834l8.444 4.889a3.476 3.476 0 012.333-.889v-.001z"/></symbol><symbol id="icon--speech" viewBox="0 0 32 32"><path d="M16 5.333c-5.882 0-10.666 4.307-10.666 9.6 0 5.61 5.376 10.141 11.733 9.549v3.35l1.642-1.054c1.207-.774 7.261-4.937 7.897-10.826.039-.335.061-.675.061-1.018 0-5.293-4.785-9.6-10.666-9.6L16 5.333zM12.8 16h-2.134v-2.134H12.8V16zm4.266 0h-2.134v-2.134h2.134V16zm4.267 0h-2.134v-2.134h2.134V16z"/></symbol><symbol id="icon--star" viewBox="0 0 32 32"><path d="M15.999 22.311l-7.436 4.507 1.972-8.451L4 12.676l8.62-.732L16 4l3.38 7.944 8.62.732-6.535 5.691 1.972 8.451z"/></symbol><symbol id="icon--support" viewBox="0 0 32 32"><path d="M15.589 5.335C11.23 5.335 6 8.822 6 14.924v4.359c0 1.322.579 2.264 1.17 2.78.36.315.511.32.753.415C8.24 23.297 10.265 28 15.59 28c.029 0 .057-.003.087-.003h.006c1.997-.023 3.589-.756 4.808-1.74h-4.902c-4.65 0-6.147-4.635-6.147-4.635l-.151-.454-.465-.116s-.228-.054-.509-.3-.574-.612-.574-1.469v-.872h.872c0-6.103 8.718-1.743 11.333-7.846 0 0 2.615 2.406 2.615 7.846v2.615h.713a2.592 2.592 0 01-2.457 1.743h-3.567a1.305 1.305 0 00-1.228-.872h-.872a1.308 1.308 0 000 2.616h.872c.078 0 .154-.011.228-.024.06.016.131.024.203.024h4.365c2.172 0 3.981-1.613 4.303-3.698.55-.293.928-.866.928-1.532v-.872c0-.644-.352-1.2-.872-1.501v-1.985c0-3.487-1.743-7.846-5.231-7.846 0 0-.872-1.743-4.359-1.743v.002z"/></symbol><symbol id="icon--upload" viewBox="0 0 32 32"><path d="M16 5.333l-6.4 8.534h4.266v8.534h4.266v-8.534h4.266l-6.399-8.534zm-10.667 19.2v2.134h21.333v-2.134H5.333z"/></symbol><symbol id="icon--view" viewBox="0 0 32 32"><path d="M16 7.333c-8.727 0-12 8.727-12 8.727s3.273 8.727 12 8.727 12-8.727 12-8.727-3.273-8.727-12-8.727zm0 3.273a5.456 5.456 0 010 10.91 5.456 5.456 0 010-10.91zm0 2.182a3.273 3.273 0 100 6.546 3.273 3.273 0 000-6.546z"/></symbol><symbol id="icon--blur-outline" viewBox="0 0 32 32"><path d="M16.067 4s-8.4 9.318-8.4 15.216c0 4.894 3.72 8.784 8.4 8.784s8.4-3.89 8.4-8.784c0-5.898-8.4-15.216-8.4-15.216zm0 21.804c-3.533 0-6.3-2.893-6.3-6.588 0-3.08 3.415-8.324 6.3-11.908 2.885 3.584 6.3 8.828 6.3 11.908 0 3.695-2.767 6.588-6.3 6.588z"/></symbol><symbol id="icon--brakes" viewBox="0 0 32 32"><path d="M5.867 6.667A1.867 1.867 0 004 8.534v.933c0 1.031.835 1.867 1.867 1.867h1.867a1.867 1.867 0 001.867-1.867v-.933a1.867 1.867 0 00-1.867-1.867H5.867zm7.466 0a1.867 1.867 0 00-1.867 1.867v.933c0 1.031.835 1.867 1.867 1.867H15.2a1.867 1.867 0 001.867-1.867v-.933A1.867 1.867 0 0015.2 6.667h-1.867zm11.2 0a1.867 1.867 0 00-1.867 1.867v.933c0 1.031.835 1.867 1.867 1.867H26.4a1.867 1.867 0 001.867-1.867v-.933A1.867 1.867 0 0026.4 6.667h-1.867zM6.785 12.254a.933.933 0 00-.919.946v1.185A1.865 1.865 0 004.933 16c.001.666.357 1.28.933 1.613V18.8a.934.934 0 101.867 0v-1.185c.282-.164.517-.399.68-.682h4.24c.163.283.398.518.68.682V18.8a.934.934 0 101.867 0v-1.187c.281-.164.515-.398.678-.68h7.973c.164.282.399.517.682.68V18.8a.934.934 0 101.867 0v-1.185c.577-.333.933-.949.933-1.615a1.866 1.866 0 00-.933-1.613V13.2a.933.933 0 10-1.867 0v1.185a1.869 1.869 0 00-.68.682H15.88a1.869 1.869 0 00-.68-.682V13.2a.933.933 0 10-1.867 0v1.187a1.873 1.873 0 00-.678.68h-4.24a1.869 1.869 0 00-.682-.68V13.2a.933.933 0 00-.948-.946zm-.918 8.413A1.867 1.867 0 004 22.534v.933c0 1.031.835 1.867 1.867 1.867h1.867a1.867 1.867 0 001.867-1.867v-.933a1.867 1.867 0 00-1.867-1.867H5.867zm7.466 0a1.867 1.867 0 00-1.867 1.867v.933c0 1.031.835 1.867 1.867 1.867H15.2a1.867 1.867 0 001.867-1.867v-.933a1.867 1.867 0 00-1.867-1.867h-1.867zm11.2 0a1.867 1.867 0 00-1.867 1.867v.933c0 1.031.835 1.867 1.867 1.867H26.4a1.867 1.867 0 001.867-1.867v-.933a1.867 1.867 0 00-1.867-1.867h-1.867z"/></symbol><symbol id="icon--bulb" viewBox="0 0 32 32"><path d="M16.081 28h-1.68c-.12 0-.24 0-.24-.12v-.96c0-.12 0-.12.24-.12h3.48c.12 0 .24 0 .24.12v.96c0 .12 0 .12-.24.12h-1.8zm0-5.28h-2.4c-.6 0-.6 0-.48.6 0 .36.24.6.6.6h4.68c.36 0 .6-.24.6-.72v-.24c0-.12 0-.24-.24-.24h-2.76zm-3.36-10.32l.84-.84c.12-.12.24-.12.36 0l2.04 2.04c.12 0 .12.12.24-.12l2.04-2.04c.12-.12.24-.12.36 0 .24.24.48.6.84.84.12.12 0 .12-.12.24l-2.4 2.4v6c0 .12 0 .24.24.24h1.92c.12 0 .24 0 .24-.24.24-1.44.96-2.64 1.92-3.72 1.68-1.8 2.28-3.84 1.8-6.24-.84-3.6-4.44-6-8.16-5.28-2.64.48-4.44 2.04-5.28 4.56-.84 2.64-.24 4.92 1.56 6.96.96 1.2 1.56 2.4 1.92 3.84 0 .12.12.24.24.24h1.8c.24 0 .24 0 .24-.24v-5.76c0-.12-.12-.24-.12-.36-.24-.24-.6-.48-.84-.72-.48-.6-1.08-1.2-1.68-1.8zm3.36 13.08h-2.28c-1.32 0-2.16-.96-2.28-2.28 0-.72 0-1.44-.12-2.16-.12-.96-.6-1.8-1.32-2.52-1.32-1.32-2.16-2.88-2.4-4.68-.48-3.48 1.2-6.96 4.32-8.76 4.92-2.76 11.04 0 12.24 5.64.6 2.88-.12 5.4-2.16 7.68-.72.84-1.32 1.68-1.56 2.88-.12.6 0 1.2-.12 1.68 0 .24 0 .6-.12.84-.24.96-1.08 1.68-2.04 1.68h-2.16z"/></symbol><symbol id="icon--bulk-removal" viewBox="0 0 32 32"><path d="M24.533 9.515H16l-2.133-2.182h-6.4c-1.177 0-2.133.979-2.133 2.182v13.091c0 1.203.957 2.182 2.133 2.182h17.067c1.177 0 2.133-.979 2.133-2.182V11.697c0-1.203-.957-2.182-2.133-2.182zM20 19.935l-1.398 1.398L16 18.731l-2.602 2.602L12 19.935l2.602-2.602L12 14.731l1.398-1.398L16 15.935l2.602-2.602L20 14.731l-2.602 2.602L20 19.935z"/></symbol><symbol id="icon--bulk-upload" viewBox="0 0 32 32"><path d="M24.533 8.848H16l-2.133-2.182h-6.4c-1.177 0-2.133.979-2.133 2.182v13.091c0 1.203.957 2.182 2.133 2.182h17.067c1.177 0 2.133-.979 2.133-2.182V11.03c0-1.203-.957-2.182-2.133-2.182zm-8.509 3.637l4.364 4.364h-3.273v4.364h-2.182v-4.364H11.66l4.364-4.364z"/></symbol><symbol id="icon--car-type" viewBox="0 0 32 32"><path d="M1.333 8v2.222h.611c.33 0 .611.2.611.445v9.555h1.284c.3 1.88 2.066 3.333 4.216 3.333 1.7 0 3.159-.913 3.848-2.222h8.193c.689 1.309 2.148 2.222 3.848 2.222s3.159-.913 3.848-2.222h1.652c.672 0 1.222-.5 1.222-1.111v-3.778c0-.3-.135-.577-.368-.788-3.068-2.767-12.075-3.167-15.521-3.212v-2.222c0-.611-.55-1.111-1.222-1.111-4.131 0-6.857 1.578-8.556 3.145v-1.589C4.999 9.2 3.63 8 1.943 8h-.611zm6.723 10c1.011 0 1.833.748 1.833 1.667s-.823 1.667-1.833 1.667c-1.011 0-1.833-.748-1.833-1.667S7.046 18 8.056 18zm15.888 0c1.011 0 1.833.748 1.833 1.667s-.823 1.667-1.833 1.667c-1.011 0-1.833-.748-1.833-1.667S22.934 18 23.944 18z"/></symbol><symbol id="icon--car-weight" viewBox="0 0 32 32"><path d="M11.218 5.333a3.162 3.162 0 00-3.022 2.185l-1.74 3.763-.002.002-1.783-.594L4 12.702l1.555.518v.002s-.159.446-.159.594v7.423c0 .585.475 1.06 1.06 1.06h3.181l.352-1.06h12.019l.354 1.06h3.181a1.06 1.06 0 001.06-1.06v-7.423c0-.148-.159-.594-.159-.594v-.002l1.555-.518-.671-2.011-1.785.594v-.004l-1.74-3.763a3.162 3.162 0 00-3.022-2.185h-9.564zm0 2.121h9.564c.467 0 .881.308 1.019.754a.557.557 0 00.052.137l1.549 3.351H8.598l1.549-3.351a.542.542 0 00.052-.137 1.062 1.062 0 011.019-.754zm-.52 7.423c.583 0 1.06.477 1.06 1.06s-.477 1.06-1.06 1.06c-.583 0-1.06-.477-1.06-1.06s.477-1.06 1.06-1.06zm3.181 0h4.242v2.121h-4.242v-2.121zm7.423 0c.583 0 1.06.477 1.06 1.06s-.477 1.06-1.06 1.06c-.583 0-1.06-.477-1.06-1.06s.477-1.06 1.06-1.06zM5.396 24.421v2.121h21.208v-2.121H5.396z"/></symbol><symbol id="icon--car" viewBox="0 0 32 32"><path d="M10.686 6.667a3.512 3.512 0 00-3.357 2.428l-1.933 4.181-.002.002-1.981-.66-.746 2.237 1.728.575v.002s-.177.495-.177.66v8.248c0 .65.528 1.178 1.178 1.178h3.535l.391-1.178h13.354l.393 1.178h3.535c.65 0 1.178-.528 1.178-1.178v-8.248c0-.165-.177-.66-.177-.66v-.002l1.728-.575-.746-2.235-1.984.66v-.005L24.67 9.094a3.513 3.513 0 00-3.358-2.428H10.685zm0 2.356h10.627c.518 0 .979.343 1.132.838a.572.572 0 00.058.152l1.721 3.723H7.775l1.721-3.723a.572.572 0 00.058-.152 1.18 1.18 0 011.132-.838zm-.577 8.248c.648 0 1.178.53 1.178 1.178s-.53 1.178-1.178 1.178c-.648 0-1.178-.53-1.178-1.178s.53-1.178 1.178-1.178zm3.535 0h4.713v2.356h-4.713v-2.356zm8.247 0c.648 0 1.178.53 1.178 1.178s-.53 1.178-1.178 1.178c-.648 0-1.178-.53-1.178-1.178s.53-1.178 1.178-1.178z"/></symbol><symbol id="icon--check-round" viewBox="0 0 32 32"><path d="M23.926 7.386c.959-.959 2.397-.959 3.355 0s.959 2.397 0 3.355L14.339 24.402c-.959.959-2.397.959-3.355 0L4.753 18.65c-.959-.959-.959-2.397-.24-3.355s2.397-.959 3.355-.24l4.314 4.074L23.926 7.385z"/></symbol><symbol id="icon--clock-outline" viewBox="0 0 32 32"><path d="M16 5.333C10.122 5.333 5.333 10.121 5.333 16S10.121 26.667 16 26.667c5.878 0 10.667-4.788 10.667-10.667S21.879 5.333 16 5.333zm0 2.134c4.725 0 8.533 3.808 8.533 8.533S20.725 24.533 16 24.533 7.467 20.725 7.467 16 11.275 7.467 16 7.467zM14.933 9.6v6.842l4.579 4.579 1.508-1.508-3.954-3.954V9.601h-2.133z"/></symbol><symbol id="icon--close-round" viewBox="0 0 32 32"><path d="M13.238 16.667l-6.586-6.586a2 2 0 012.829-2.829l6.586 6.586 6.586-6.586a2 2 0 012.829 2.829l-6.586 6.586 6.586 6.586a2 2 0 01-2.829 2.829l-6.586-6.586-6.586 6.586a2 2 0 01-2.829-2.829l6.586-6.586z"/></symbol><symbol id="icon--crop-1" viewBox="0 0 32 32"><path d="M8.528 5.335A1.065 1.065 0 007.48 6.414v1.065H6.415a1.067 1.067 0 00-.936 1.602c.194.332.552.534.936.527H7.48v12.778c0 1.164.966 2.13 2.13 2.13h12.778v1.065a1.065 1.065 0 102.129 0v-1.065h1.065a1.065 1.065 0 100-2.129h-1.965a.992.992 0 00-.335 0H11.116l11.272-11.272v8.078a1.065 1.065 0 102.129 0V8.986l1.818-1.818a1.065 1.065 0 10-1.505-1.505l-1.818 1.818H12.805a1.067 1.067 0 00-.936 1.602c.194.332.552.534.936.527h8.077L9.61 20.882V8.724a1.063 1.063 0 000-.347V6.416a1.062 1.062 0 00-1.082-1.079z"/></symbol><symbol id="icon--details-page" viewBox="0 0 32 32"><path d="M7.704 5.333a2.37 2.37 0 00-2.37 2.37v4.741h21.333V7.703a2.37 2.37 0 00-2.37-2.37H7.704zm1.185 2.371a1.186 1.186 0 11-.001 2.371 1.186 1.186 0 01.001-2.371zm3.555 0a1.186 1.186 0 11-.001 2.371 1.186 1.186 0 01.001-2.371zm3.556 0h8.296v2.37H16v-2.37zM5.333 14.815v9.481a2.388 2.388 0 002.37 2.371h16.593a2.388 2.388 0 002.37-2.37v-9.481h-2.37v9.481H13.629v-9.481H5.333zm10.667 0v2.37h5.926v-2.37H16zm0 4.74v2.37h5.926v-2.37H16z"/></symbol><symbol id="icon--driving" viewBox="0 0 32 32"><path d="M9.053 5.333a2.807 2.807 0 100 5.615 2.807 2.807 0 000-5.615zm10.682 3.185l-.474 2.842-3.103 1.772-4.682-.936a2.242 2.242 0 00-2.276.48c-.82.764-.888 2.055-.259 2.987l4.412 6.636c.18.258.404.483.651.64l1.504-5.513-1.645-2.463 2.268.454c.266.053.541.007.776-.127l1.877-1.072-.173 1.037 2.215.368 1.123-6.737-2.215-.368zm-5.731 14.421l-1.022 3.728h2.246l.976-3.592a2.259 2.259 0 01-2.2-.136zm2.2.136c.011 0 .013-.013.024-.013l5.175-2.39 3.548 4.211a1.49 1.49 0 001.191.605c.303 0 .617-.09.875-.292a1.434 1.434 0 00.371-1.875l-3.772-5.827a2.015 2.015 0 00-2.382-.809l-3.638 1.314-1.393 5.077zM4 12.07v2.178l.763.202 1.515.406a4.443 4.443 0 01-.033-.539c0-.55.101-1.09.292-1.572l-1.638-.436L4 12.072z"/></symbol><symbol id="icon--duplicate" viewBox="0 0 32 32"><path d="M10.667 5.333a1.067 1.067 0 000 2.134h13.867v13.867a1.067 1.067 0 002.134 0V7.467a2.132 2.132 0 00-2.133-2.133H10.668zM7.467 9.6a2.132 2.132 0 00-2.133 2.133v12.8c0 1.179.955 2.133 2.133 2.133h12.8a2.132 2.132 0 002.133-2.133v-12.8A2.132 2.132 0 0020.267 9.6h-12.8zm6.4 4.267c.589 0 1.067.478 1.067 1.067v2.133h2.133a1.067 1.067 0 010 2.134h-2.133v2.133a1.067 1.067 0 01-2.134 0v-2.133h-2.133a1.067 1.067 0 010-2.134H12.8v-2.133c0-.589.478-1.067 1.067-1.067z"/></symbol><symbol id="icon--engine" viewBox="0 0 32 32"><path d="M13.778 6.667v2.222h3.333v2.222h2.222V8.889h3.333V6.667h-8.889zm0 6.666c-.3 0-.579.121-.79.321L11.1 15.555H8.222c-.611 0-1.111.5-1.111 1.111v6.667c0 .611.5 1.111 1.111 1.111h1.888l3.056 2.033c.178.122.39.189.612.189h5.556c.244 0 .477-.077.666-.221l4.444-3.333c.278-.211.445-.545.445-.89v-7.778c0-.611-.5-1.111-1.111-1.111h-10zm13.333 1.111v6.667h2.222v-6.667h-2.222zm-10 1.112v3.333h2.222L16 24.445v-3.333h-2.222l3.333-5.556zM2.667 16.667v5.556h2.222v-5.556H2.667z"/></symbol><symbol id="icon--entertainment" viewBox="0 0 32 32"><path d="M15.868 19.874h7.463c.422 0 .643.526.332.811-1.074.977-2.53 1.589-4.063 1.589s-2.989-.612-4.063-1.589c-.312-.286-.091-.811.331-.811zm-7.668-2.4c.961 0 1.8.839 1.8 1.8s-.839 1.8-1.8 1.8c-.961 0-1.8-.839-1.8-1.8s.839-1.8 1.8-1.8zm5.513-2.4h11.774c.122.361.113.839.113 1.2s.01.839-.113 1.2H13.713c-.122-.361-.113-.839-.113-1.2s-.01-.839.113-1.2zm-5.513-3.6c.961 0 1.8.84 1.8 1.8 0 .961-.839 1.8-1.8 1.8s-1.8-.839-1.8-1.8c0-.96.839-1.8 1.8-1.8zm11.4-1.2c1.534 0 2.989.612 4.063 1.59.311.284.09.81-.332.81h-7.463c-.422 0-.643-.526-.331-.81a6.087 6.087 0 014.063-1.59zM4 9.549v13.454a2.878 2.878 0 002.869 2.87h18.26a2.878 2.878 0 002.87-2.87V9.544a2.878 2.878 0 00-2.869-2.87l-12.673.002c-.54.025-3.347.018-5.581.007A2.863 2.863 0 004 9.549z"/></symbol><symbol id="icon--filter" viewBox="0 0 32 32"><path d="M5.333 5.333v2.37h1.185l5.926 9.481v9.481h7.111v-9.481l5.926-9.481h1.185v-2.37H5.333zm3.982 2.371h13.373l-5.502 8.801v7.792h-2.37v-7.792l-5.5-8.801z"/></symbol><symbol id="icon--graph" viewBox="0 0 32 32"><path d="M5.333 5.333v18.963a2.388 2.388 0 002.37 2.37h18.963v-2.37H7.703V5.333h-2.37zm19.343 3.929l-5.134 5.086-3.549-3.394-6.745 6.567 1.653 1.699 5.106-4.972 3.563 3.405 6.775-6.708-1.669-1.683z"/></symbol><symbol id="icon--home" viewBox="0 0 32 32"><path d="M16.416 5.333L4 16.508h3.386v10.159h5.644v-7.901h6.772v7.901h5.644V16.508h3.386l-4.515-4.063V7.478H22.06v2.934z"/></symbol><symbol id="icon--list" viewBox="0 0 32 32"><path d="M11.2 10.4a1.2 1.2 0 110-2.4h15.6a1.2 1.2 0 110 2.4H11.2zm0 7.2a1.2 1.2 0 110-2.4h15.6a1.2 1.2 0 110 2.4H11.2zm0 7.2a1.2 1.2 0 110-2.4h15.6a1.2 1.2 0 110 2.4H11.2zM4 8h2.4v2.4H4V8zm0 7.2h2.4v2.4H4v-2.4zm0 7.2h2.4v2.4H4v-2.4z"/></symbol><symbol id="icon--listing-rejected" viewBox="0 0 32 32"><path d="M6.8 6.667c-1.175 0-2.133.973-2.133 2.167v13c0 1.193.958 2.167 2.133 2.167h12.8l-2.133-2.167H6.8V11.001h17.067v8.667L26 17.501V8.834c0-1.193-.958-2.167-2.133-2.167H6.8zm1.867 6.666V16h2.667v-2.667H8.667zm4 0V16H22v-2.667h-9.333zm-4 4V20h2.667v-2.667H8.667zm4 0V20h5.714l2.286-2.667h-8zM20.961 20l-1.628 1.406 3.039 2.625-2.966 2.563L21.07 28 24 25.437 26.966 28l1.628-1.438-2.93-2.531 3.003-2.625L27.039 20 24 22.625 20.961 20z"/></symbol><symbol id="icon--listing" viewBox="0 0 32 32"><path d="M5.333 8c-1.619 0-2.667 1.371-2.667 2.667v10.667c0 1.295 1.047 2.667 2.667 2.667h21.333c1.619 0 2.667-1.371 2.667-2.667V10.667C29.333 9.372 28.286 8 26.666 8H5.333zm0 4h8v8h-8v-8zM16 12h10.667v2.667H16V12zm0 5.333h10.667V20H16v-2.667z"/></symbol><symbol id="icon--moderation" viewBox="0 0 32 32"><path d="M15.067 4v2.4h2.4V4h-2.4zm2.4 1.2v2.4h-2.4V5.2h-6a2.402 2.402 0 00-2.4 2.4v18c0 1.324 1.076 2.4 2.4 2.4h14.4c1.324 0 2.4-1.076 2.4-2.4v-18c0-1.324-1.076-2.4-2.4-2.4h-6zm-2.488 16.35l-4.313-4.313 1.457-1.457 2.856 2.856 5.969-5.969 1.457 1.457-7.426 7.426z"/></symbol><symbol id="icon--motorbike" viewBox="0 0 32 32"><path d="M15.5 6.667V9h2.78l.237.476c-.691.392-1.3.965-1.862 1.504-.779.747-1.582 1.52-2.322 1.52-.965 0-1.417-.331-2.238-.93C10.61 10.484 8.575 9 2.666 9v2.333c.895 0 1.658.043 2.356.107l1.458 2.226H3.832v2.333h4.177l3.475 5.307c.216.329.584.527.978.526h8.871c0 1.919 1.581 3.5 3.5 3.5s3.5-1.581 3.5-3.5c0-1.679-1.21-3.101-2.798-3.429l-2.142-3.571h3.773a1.168 1.168 0 00.898-1.914c-.127-.151-2.982-3.51-7.157-3.881l-.864-1.727a1.168 1.168 0 00-1.044-.645h-3.5zm5.774 9.167l1.805 3.008a3.614 3.614 0 00-.827.659h-2.03c.155-1.637.618-2.835 1.053-3.666zM6.167 18.333c-1.919 0-3.5 1.581-3.5 3.5s1.581 3.5 3.5 3.5 3.5-1.581 3.5-3.5-1.581-3.5-3.5-3.5zm0 2.334c.658 0 1.167.509 1.167 1.167s-.509 1.167-1.167 1.167S5 22.492 5 21.834s.509-1.167 1.167-1.167zm18.543.022c.087.011.175.013.262.005.586.069 1.028.531 1.028 1.139 0 .658-.509 1.167-1.167 1.167s-1.167-.509-1.167-1.167c0-.614.45-1.082 1.044-1.144z"/></symbol><symbol id="icon--photo-error" viewBox="0 0 32 32"><path d="M24.166 17.759h.105v7.247a2.992 2.992 0 01-2.993 2.993H6.994a2.992 2.992 0 01-2.993-2.993v-14.6c0-1.681 1.365-2.993 3.046-3.046h9.978c-.368.84-.525 1.786-.525 2.731 0 4.201 3.414 7.667 7.667 7.667zM9.777 10.144c-1.365 0-2.468 1.103-2.468 2.468s1.103 2.468 2.468 2.468 2.468-1.103 2.468-2.468-1.103-2.468-2.468-2.468zM7.256 25.322l14.6.053-3.991-7.93c-.263-.578-.998-.578-1.313-.053l-1.733 3.046c-.315.525-1.05.63-1.47.158l-.683-.735a1.51 1.51 0 00-2.416.263l-2.993 5.199zM24.166 4c3.361 0 6.092 2.731 6.092 6.092s-2.731 6.092-6.092 6.092c-3.361 0-6.092-2.731-6.092-6.092S20.805 4 24.166 4zm.788 2.363h-1.208l.105 4.569h.998l.105-4.569zm-.578 7.09c.368 0 .683-.315.683-.683s-.315-.683-.683-.683c-.368 0-.683.315-.683.683s.315.683.683.683z"/></symbol><symbol id="icon--photo-upload" viewBox="0 0 32 32"><path d="M7.274 25.254l14.681.106-3.961-8.027c-.264-.581-1.003-.581-1.32-.053l-1.743 3.063c-.37.528-1.109.634-1.531.158l-.687-.739a1.518 1.518 0 00-2.429.264l-3.01 5.228zm2.535-15.209c-1.373 0-2.482 1.109-2.482 2.482s1.109 2.482 2.482 2.482c1.373 0 2.482-1.109 2.482-2.482s-1.109-2.482-2.482-2.482zm8.291-.897c0 3.538 2.799 6.443 6.284 6.654v9.189c0 1.637-1.32 3.01-3.01 3.01H7.01A3.008 3.008 0 014 24.991V10.31C4 8.62 5.373 7.3 7.01 7.3h11.354a7.123 7.123 0 00-.264 1.848zm9.535-.448c.158-.211.106-.528-.106-.739l-2.535-1.795s0-.053-.053-.053c0-.053 0-.053-.053-.053h-.37l-.053.053-2.482 2.007c-.211.158-.264.475-.053.739.158.211.475.211.686.053l1.69-1.373v4.542c0 .317.211.581.475.581s.475-.264.475-.528V7.54l1.637 1.267c.106.053.211.106.317.106.158 0 .317-.106.422-.211zM24.783 4c2.852 0 5.175 2.271 5.175 5.122s-2.324 5.175-5.175 5.175c-2.852 0-5.175-2.324-5.175-5.175S21.932 4 24.783 4z"/></symbol><symbol id="icon--rectangle" viewBox="0 0 32 32"><path d="M2.667 8.32v15.556h26.667V8.32H2.667zm24.444 13.333H4.889V10.542h22.222v11.111z"/></symbol><symbol id="icon--registration-card" viewBox="0 0 32 32"><path d="M22.006 15.746H10.171v-2.133h11.835v2.133zm0-4.775H10.171V8.838h11.835v2.133zm-9.447 11.226l-1.219.559-.152-1.27-1.067-.762 1.067-.762.152-1.27 1.168.559 1.168-.559.152 1.27 1.067.762-1.016.711-.152 1.27-1.168-.508zm7.822-2.692h2.794l-4.724 4.724v-2.794c0-1.067.863-1.93 1.93-1.93zm3.098-14.172H8.749c-1.168 0-2.083 1.067-2.083 2.387v16.559c0 1.321.965 2.387 2.083 2.387h9.701l7.111-7.111V7.669c0-1.321-.965-2.337-2.082-2.337z"/></symbol><symbol id="icon--report" viewBox="0 0 32 32"><path d="M26.909 6.667H4v2.182h1.091v12c0 1.205.976 2.182 2.182 2.182h7.636v3.273h2.182v-3.273h7.636a2.181 2.181 0 002.182-2.182v-12H28V6.667h-1.091zm-4.862 9.771l-2.774-2.774-4.364 4.364-2.182-2.182-2.774 2.774-1.543-1.543 4.317-4.317 2.182 2.182 4.364-4.364 4.317 4.317-1.543 1.543z"/></symbol><symbol id="icon--rotate-left-2" viewBox="0 0 32 32"><path d="M10.172 5.337c-.181.023-.355.151-.464.413l-2.966 7.145c-.219.522.058.877.619.799l7.583-1.083c.561-.077.538-.445.206-.903l-1.315-1.806a7.33 7.33 0 012.786-.542 7.41 7.41 0 017.428 7.557l-.052.697-.103.619.31 1.032 1.006.413.929-.516.206-.542.129-.748v-.129l.052-.877v-.077c0-5.455-4.449-9.904-9.904-9.904a9.918 9.918 0 00-4.282.98l-1.625-2.218c-.168-.229-.361-.332-.542-.31zM8.779 18.078l-1.057.052-.645.851.052.593.103.413.052.103.284.696.052.103.181.413.851.645 1.032-.232.464-.954-.129-.567-.206-.413-.206-.516-.103-.413-.722-.774zm15.166 2.94l-1.057.026-.464.361-.026.052-.026.026-.052.077-.413.438-.077.077-.387.335-.387 1.006.516.928 1.032.181.516-.284.464-.413.077-.077.567-.619.078-.103.103-.155.206-1.032-.671-.825zm-12.741 1.651l-.774.722.077 1.057.387.413.593.413.103.052.671.361.103.052.155.052 1.058-.026.645-.851-.258-1.032-.464-.361-.077-.026-.077-.052-.49-.258-.103-.052-.49-.335-1.058-.129zm7.712 1.315l-.567.026-.181.052h-.026l-.077.026-.619.077-.49.026-.928.516-.206 1.032.697.825.567.103.49-.026h.129l.851-.129.129-.026.284-.077.8-.697v-1.057l-.851-.671z"/></symbol><symbol id="icon--rotate-right-2" viewBox="0 0 32 32"><path d="M23.026 5.336c-.174-.019-.377.087-.541.335l-1.623 2.216a9.937 9.937 0 00-4.302-.979c-5.449 0-9.893 4.444-9.893 9.893v.155l.052.799v.129l.129.747.593.876 1.056.103.747-.773.052-.593-.103-.618-.052-.747v-.129a7.398 7.398 0 017.42-7.368c1.018 0 1.958.174 2.808.515L18.055 11.7c-.328.496-.341.818.155.902l7.574 1.056c.576.084.834-.248.67-.824l-2.963-7.085c-.122-.248-.29-.393-.464-.412zm1.958 12.649l-1.005.386-.283.489-.129.412-.18.489h-.026l-.206.438-.026 1.056.799.696 1.056-.206.386-.438.258-.515.283-.721.026-.103.129-.386-.18-1.056-.902-.541zM9.81 20.922l-.979.412-.283 1.03.232.515.103.155.077.103.567.618.077.077.464.412 1.03.309.876-.593.077-1.056-.309-.489-.386-.335-.077-.077-.412-.438-.052-.077-.026-.026-.026-.052-.953-.489zm11.644 1.7l-.541.18-.489.335-.077.052-.489.258-.026.026-.155.052-.696.799.18 1.056.927.515.567-.103.18-.077.103-.052.67-.361.103-.052.567-.386.541-.902-.361-1.005-1.005-.335zm-6.621 1.391l-1.03.206-.515.927.412.979.515.283.283.077.129.026.85.129h.129l.489.026.979-.412.309-1.005-.618-.876-.541-.18-.489-.026-.618-.077-.077-.026h-.026l-.18-.052z"/></symbol><symbol id="icon--share-2" viewBox="0 0 32 32"><path d="M17.64 9.414v-.317c-.006-1.139-.011-2.282-.006-3.421 0-.12.066-.323.138-.334a.535.535 0 01.414.104c2.1 1.834 4.194 3.673 6.289 5.512.939.821 1.873 1.648 2.813 2.469.354.312.354.378.011.684-2.984 2.633-5.968 5.26-8.958 7.893-.155.137-.293.372-.558.246-.254-.12-.144-.372-.144-.564-.006-1.111.006-2.228.011-3.339 0-.071-.006-.142-.017-.285-.575.027-1.149-.005-1.702.093-4.034.701-7.14 2.753-9.212 6.267-.354.602-.564 1.281-.84 1.927-.033.082-.05.192-.116.241-.066.055-.221.099-.265.066-.083-.066-.171-.197-.166-.301.028-.903.039-1.806.122-2.704.171-1.932.558-3.821 1.26-5.638 1.078-2.797 2.746-5.145 5.316-6.798 1.647-1.056 3.443-1.675 5.41-1.779l.199-.022z"/></symbol><symbol id="icon--sort" viewBox="0 0 32 32"><path d="M10.667 5.333l-5.333 5.333h4.267v6.4h2.133v-6.4h4.267l-5.333-5.333zm9.6 1.067v2.133H22.4V6.4h-2.133zm0 4.267V12.8H22.4v-2.133h-2.133zm0 4.266v6.4H16l5.333 5.333 5.333-5.333h-4.267v-6.4h-2.133zM9.6 19.2v2.133h2.133V19.2H9.6zm0 4.267V25.6h2.133v-2.133H9.6z"/></symbol><symbol id="icon--speedometer" viewBox="0 0 32 32"><path d="M16.191 5.333C9.469 5.333 4 10.801 4 17.524c0 3.5 1.48 6.639 3.841 8.857l.317.286h16.064l.317-.286a12.107 12.107 0 003.841-8.857c0-6.722-5.468-12.191-12.19-12.191zm0 2.032A10.143 10.143 0 0126.35 17.524c0 2.798-1.187 5.274-3.016 7.111H9.048c-1.829-1.837-3.016-4.313-3.016-7.111A10.143 10.143 0 0116.191 7.365zm0 1.016c-.56 0-1.016.456-1.016 1.016s.456 1.016 1.016 1.016c.559 0 1.016-.456 1.016-1.016s-.456-1.016-1.016-1.016zM12.127 9.46c-.559 0-1.016.456-1.016 1.016s.456 1.016 1.016 1.016c.559 0 1.016-.456 1.016-1.016s-.456-1.016-1.016-1.016zm8.127 0c-.56 0-1.016.456-1.016 1.016s.456 1.016 1.016 1.016c.559 0 1.016-.456 1.016-1.016s-.456-1.016-1.016-1.016zM9.143 12.444c-.559 0-1.016.456-1.016 1.016s.456 1.016 1.016 1.016c.559 0 1.016-.456 1.016-1.016s-.456-1.016-1.016-1.016zm14.095 0c-.198 0-.381.06-.54.159l-5.492 3.175a2.013 2.013 0 00-1.016-.286 2.031 2.031 0 100 4.064 2.031 2.031 0 002.032-2.032l5.397-3.143c.365-.155.635-.5.635-.921 0-.559-.456-1.016-1.016-1.016zM8.063 16.508c-.559 0-1.016.456-1.016 1.016s.456 1.016 1.016 1.016c.559 0 1.016-.456 1.016-1.016s-.456-1.016-1.016-1.016zm16.254 0c-.559 0-1.016.456-1.016 1.016s.457 1.016 1.016 1.016 1.016-.456 1.016-1.016c0-.559-.456-1.016-1.016-1.016zM9.143 20.571c-.559 0-1.016.456-1.016 1.016s.456 1.016 1.016 1.016c.559 0 1.016-.456 1.016-1.016s-.456-1.016-1.016-1.016zm14.095 0c-.56 0-1.016.456-1.016 1.016s.456 1.016 1.016 1.016c.559 0 1.016-.456 1.016-1.016s-.456-1.016-1.016-1.016z"/></symbol><symbol id="icon--spray" viewBox="0 0 32 32"><path d="M23.099 4.007a.506.506 0 00-.122.058l-3.756 1.788h-.061a.385.385 0 00-.183.087l-.03.029a.39.39 0 00-.122.087l-.03.029v.029c-.091.146-.088.333.008.476s.271.227.45.216l3.725 1.759a.51.51 0 00.546.04.457.457 0 00.244-.461.479.479 0 00-.363-.386l-2.076-.98h3.817a.493.493 0 00.427-.227.433.433 0 000-.469.493.493 0 00-.427-.227h-3.817l2.076-.98c.214-.105.317-.339.24-.555s-.309-.35-.546-.31zm-8.214.923c-.588 0-.977.368-.977.923v1.471c0 .184.202.375.397.375h.397a.96.96 0 00-.244.087s-1.046.49-2.107 1.24c-.531.375-1.08.829-1.527 1.355S10 11.545 10 12.313v14.765c0 .555.389.923.977.923h9.771c.588 0 .977-.368.977-.923V12.457a.865.865 0 000-.144c0-.761-.382-1.384-.824-1.903s-1-.948-1.527-1.327c-1.053-.761-2.076-1.269-2.076-1.269a.99.99 0 00-.366-.115h.488c.195 0 .397-.191.397-.375V5.853c0-.555-.389-.923-.977-.923h-1.954zm.275 4.614h1.405c.157.079.84.425 1.649 1.009.37.267.668.552.947.836h-6.656a6.641 6.641 0 011.008-.865 11.79 11.79 0 011.649-.98zm.703 6.459c1.66 0 2.931 1.2 2.931 2.768s-1.271 2.768-2.931 2.768c-1.66 0-2.931-1.2-2.931-2.768s1.271-2.768 2.931-2.768z"/></symbol><symbol id="icon--stering" viewBox="0 0 32 32"><path d="M16 5.333c-5.867 0-10.667 4.8-10.667 10.667S10.133 26.667 16 26.667 26.667 21.867 26.667 16 21.867 5.333 16 5.333zm0 2.134c4.331 0 7.928 3.273 8.458 7.467h-4.331a4.267 4.267 0 00-4.127-3.2 4.267 4.267 0 00-4.125 3.2H7.542c.53-4.193 4.127-7.467 8.458-7.467zm-8.458 9.6h4.331a4.267 4.267 0 003.06 3.058v4.333a8.563 8.563 0 01-7.392-7.392zm12.583 0h4.333a8.563 8.563 0 01-7.392 7.392v-4.331a4.267 4.267 0 003.058-3.06z"/></symbol><symbol id="icon--suspension" viewBox="0 0 32 32"><path d="M21.388 5.333l-1.721 1.709 5.281 5.316 1.718-1.707-1.792-1.806 1.792-1.804-1.718-1.709-1.78 1.794-1.78-1.794zm-4.402 2.661l-1.718 1.707 7.042 7.091 1.718-1.709-7.042-7.089zm-5.26 2.315c-.316 0-.632.116-.859.346l-3.52 3.543a1.211 1.211 0 000 1.707l.911.921-.911.918a1.214 1.214 0 000 1.709l4.395 4.426a2.469 2.469 0 01-3.252-.253 2.533 2.533 0 01-.736-1.671l-2.421.128a4.987 4.987 0 001.439 3.25c1.919 1.934 5.08 1.934 6.999 0l.563-.552-.002-.002c.004-.004.01-.005.014-.009l.899-.907.902.907a1.207 1.207 0 001.718 0l3.52-3.546a1.214 1.214 0 000-1.709l-8.8-8.86a1.205 1.205 0 00-.859-.346z"/></symbol><symbol id="icon--transmission-2" viewBox="0 0 32 32"><path d="M7.704 5.333a2.37 2.37 0 00-1.185 4.421v4.861a1.197 1.197 0 000 .387v4.875a2.37 2.37 0 00-1.185 2.049 2.37 2.37 0 103.555-2.051V16h5.926v3.875A2.369 2.369 0 0016 24.296a2.37 2.37 0 002.37-2.37 2.373 2.373 0 00-1.185-2.049V16h5.926v6.248a2.37 2.37 0 00-1.185 2.049 2.37 2.37 0 103.555-2.051v-7.231a1.197 1.197 0 000-.387V9.753a2.37 2.37 0 10-2.37.001v3.875h-5.926V9.752a2.37 2.37 0 001.185-2.049 2.37 2.37 0 10-3.555 2.051v3.875H8.889V9.752a2.37 2.37 0 001.185-2.049 2.37 2.37 0 00-2.37-2.37z"/></symbol><symbol id="icon--trash-delete" viewBox="0 0 32 32"><path d="M21.49 5.655c.593 0 .988.395.988.988s-.395.988-.988.988H7.655c-.593 0-.988-.395-.988-.988s.395-.988.988-.988h3.953l.988-.988h3.953l.988.988h3.953zm-8.694 18.776H9.632a1.982 1.982 0 01-1.976-1.976V9.608h13.835v3.558a8.47 8.47 0 00-3.36.395v-1.187h-1.482v1.839a8.475 8.475 0 00-4.249 6.191v-8.03h-1.482v9.388h1.399a8.45 8.45 0 00.481 2.668zm7.988 4.236a7.06 7.06 0 110-14.118 7.06 7.06 0 010 14.118zm1.298-7.248l1.633-1.633a.919.919 0 00-1.298-1.298l-1.633 1.633-1.633-1.633a.919.919 0 00-1.298 1.298l1.633 1.633-1.633 1.633a.919.919 0 001.298 1.298l1.633-1.633 1.633 1.633a.919.919 0 001.298-1.298l-1.633-1.633z"/></symbol><symbol id="icon--trash" viewBox="0 0 32 32"><path d="M23.793 6.439h-4.425l-1.106-1.106h-4.425l-1.106 1.106H8.306c-.664 0-1.106.442-1.106 1.106s.442 1.106 1.106 1.106h15.486c.664 0 1.106-.442 1.106-1.106s-.442-1.106-1.106-1.106zM8.306 24.612c0 1.13.996 2.054 2.212 2.054H21.58c1.217 0 2.212-.924 2.212-2.054V11.259H8.306v13.353zM18.578 13.63h1.659v10.667h-1.659V13.63zm-6.621 0h1.659v10.667h-1.659V13.63z"/></symbol><symbol id="icon--user-management" viewBox="0 0 32 32"><path d="M16 5.333C10.109 5.333 5.333 10.108 5.333 16S10.108 26.667 16 26.667c5.891 0 10.667-4.775 10.667-10.667S21.892 5.333 16 5.333zm0 2.934a3.467 3.467 0 110 6.933 3.467 3.467 0 010-6.933zm0 16.266a8.524 8.524 0 01-7.089-3.783c1.196-1.739 5.005-2.617 7.089-2.617s5.893.878 7.089 2.617A8.522 8.522 0 0116 24.533z"/></symbol><symbol id="icon--wheel" viewBox="0 0 32 32"><path d="M16 5.333c-5.867 0-10.667 4.8-10.667 10.667S10.133 26.667 16 26.667 26.667 21.867 26.667 16 21.867 5.333 16 5.333zm-1.067 2.198c.352-.043.704-.064 1.067-.064s.715.021 1.067.064v3.136h-2.133V7.531zm-5.728 3.317l2.688 1.547-1.067 1.856-2.688-1.557c.277-.661.64-1.28 1.067-1.845zm0 10.304a8.586 8.586 0 01-1.067-1.845l2.709-1.568 1.067 1.845-2.709 1.568zm7.862 3.317c-.352.043-.704.064-1.067.064s-.715-.021-1.067-.064v-3.136h2.133v3.136zM16 18.133a2.132 2.132 0 11-.001-4.265A2.132 2.132 0 0116 18.133zm6.795-7.285a8.586 8.586 0 011.067 1.845l-2.699 1.557-1.067-1.845 2.699-1.557zm0 10.304l-2.677-1.547 1.067-1.845 2.677 1.547a8.544 8.544 0 01-1.067 1.845z"/></symbol><symbol id="icon--blur" viewBox="0 0 32 32"><path d="M16.067 4s-8.4 9.961-8.4 15.6c0 4.678 3.722 8.4 8.4 8.4s8.4-3.722 8.4-8.4c0-5.64-8.4-15.6-8.4-15.6z"/></symbol><symbol id="icon--crop" viewBox="0 0 32 32"><path d="M8.533 5.333v3.2h-3.2v3.2h3.2v11.733h11.733v3.2h3.2v-3.2h3.2v-3.2h-13.4l7-7v5.933h3.2v-9.133l2.9-2.9-1.533-1.533-2.9 2.9H12.8v3.2h5.933l-7 7v-13.4z"/></symbol><symbol id="icon--flip-horizontal" viewBox="0 0 32 32"><path d="M14.922 5.333l-9.4 18.333c-.642 1.387.442 3 1.934 3h7.466V5.333zm2.133 0v21.333h7.466c1.6 0 2.575-1.613 1.934-3l-9.4-18.333zM12.788 14.2v10.333H7.454L12.788 14.2z"/></symbol><symbol id="icon--flip-vertical" viewBox="0 0 32 32"><path d="M8.8 5.333c-1.175 0-2.134.854-2.134 2.134v7.466H28l-18.334-9.4c-.321-.108-.546-.2-.866-.2zm0 2.133L19.134 12.8H8.8V7.466zm-2.133 9.601v7.466c0 1.6 1.613 2.575 3 1.934l18.334-9.4H6.667z"/></symbol><symbol id="icon--move" viewBox="0 0 32 32"><path d="M17.171 8.976v5.853h5.853v-3.805L28 16l-4.976 4.976v-3.805h-5.853v5.853h3.805L16 28l-4.976-4.976h3.805v-5.853H8.976v3.805L4 16l4.976-4.976v3.805h5.853V8.976h-3.805L16 4l4.976 4.976z"/></symbol><symbol id="icon--rotate-left" viewBox="0 0 32 32"><path d="M16.597 5.341a3.2 3.2 0 01.8.166l-.666 2.033a4.06 4.06 0 00-.733-.066V5.341c.158 0 .362-.017.6 0h-.001zm2.565.5l.4.1.134.066 1.166.5.266.134-1.1 1.833h-.034l-.134-.066-.9-.4-.134-.066-.266-.066.6-2.033.001-.001zm-7.43 1.633l-.733 6.398-2.333-2.333c-.795 1.287-1.2 2.782-1.2 4.465 0 4.761 3.77 8.53 8.53 8.53s8.53-3.77 8.53-8.53c0-.321-.05-.683-.066-.733l2.033-.666c.196.591.166 1.078.166 1.399 0 5.902-4.761 10.663-10.663 10.663S5.333 21.906 5.333 16.004c0-2.241.633-4.29 1.799-5.998L5.333 8.207l6.398-.733zm11.029.3l.366.3.1.1.866.9.066.034.034.066.066.1-1.599 1.166-.1.1h-.034l-.034-.066v-.034l-.7-.7h-.034l-.066-.1-.266-.2 1.334-1.666zm2.599 3.132l.266.5.066.134.466 1.199-1.999.766-.4-1.066-.066-.1v-.034l-.2-.366 1.866-1.033z"/></symbol><symbol id="icon--rotate-right" viewBox="0 0 32 32"><path d="M15.399 5.341c.238-.017.442 0 .6 0v2.133c-.321 0-.683.05-.733.066L14.6 5.507c.296-.1.562-.15.8-.166h-.001zm-2.566.5l.6 2.033-.266.066-.134.066-.9.4-.134.066h-.034l-1.1-1.833.266-.134 1.166-.5.134-.066.4-.1.001.001zm7.431 1.633l6.398.733-1.799 1.799c1.166 1.708 1.799 3.757 1.799 5.998 0 5.902-4.761 10.663-10.663 10.663S5.336 21.906 5.336 16.004c0-.321-.03-.808.166-1.399l2.033.666a4.06 4.06 0 00-.066.733c0 4.761 3.77 8.53 8.53 8.53s8.53-3.77 8.53-8.53c0-1.682-.404-3.178-1.2-4.465l-2.333 2.333-.733-6.398h.001zm-11.029.3l1.333 1.666-.266.2-.066.1h-.034l-.7.7v.034l-.034.066h-.034l-.1-.1-1.599-1.166.066-.1.034-.066.066-.034.866-.9.1-.1.366-.3h.001zm-2.599 3.132l1.866 1.033-.2.366v.034l-.066.1-.4 1.066-1.999-.766.466-1.199.066-.134.266-.5z"/></symbol><symbol id="icon--rotate" viewBox="0 0 32 32"><path d="M8 4.8l-.534 6.933 6.933-.534-2.633-2.633a8.65 8.65 0 014.233-1.1c4.692 0 8.533 3.841 8.533 8.533v.734l1.8 1.834c.213-.854.334-1.713.334-2.566 0-5.866-4.8-10.666-10.666-10.666-2.133 0-4.113.621-5.766 1.7L8 4.801zm-2.333 8.633a10.612 10.612 0 00-.334 2.566c0 5.866 4.8 10.666 10.666 10.666 2.125 0 4.083-.666 5.733-1.733l2.266 2.266.534-6.933-6.933.534 2.633 2.633a8.64 8.64 0 01-4.233 1.1c-4.692 0-8.533-3.841-8.533-8.533v-.734l-1.799-1.832z"/></symbol><symbol id="icon--zoom-in" viewBox="0 0 32 32"><path d="M12.8 5.333c-4.125 0-7.467 3.342-7.467 7.467s3.342 7.467 7.467 7.467c1.838 0 3.5-.667 4.8-1.767l.533.533v.933l6.7 6.7 1.833-1.833-6.7-6.7h-.933L18.5 17.6a7.385 7.385 0 001.767-4.8A7.466 7.466 0 0012.8 5.333zm0 2.134c2.942 0 5.333 2.392 5.333 5.333s-2.392 5.333-5.333 5.333c-2.942 0-5.333-2.392-5.333-5.333S9.859 7.467 12.8 7.467zM11.733 9.6v2.133H9.6v2.133h2.133v2.133h2.133v-2.133h2.133v-2.133h-2.133V9.6h-2.133z"/></symbol><symbol id="icon--zoom-out" viewBox="0 0 32 32"><path d="M12.8 5.334c-4.111 0-7.466 3.355-7.466 7.466s3.355 7.466 7.466 7.466a7.416 7.416 0 004.879-1.834l.454.454v1.379l6.4 6.4 2.134-2.134-6.4-6.4h-1.379l-.454-.454a7.42 7.42 0 001.834-4.879c0-4.111-3.355-7.466-7.466-7.466l-.001.001zm0 2.133c2.958 0 5.334 2.375 5.334 5.334s-2.375 5.334-5.334 5.334c-2.958 0-5.334-2.375-5.334-5.334S9.841 7.467 12.8 7.467zm-3.2 4.267v2.134H16v-2.134H9.6z"/></symbol><symbol id="icon--apps-2" viewBox="0 0 32 32"><path d="M6.519 5.333c-.654 0-1.185.531-1.185 1.185v2.37c0 .654.531 1.185 1.185 1.185h2.37c.654 0 1.185-.531 1.185-1.185v-2.37c0-.654-.531-1.185-1.185-1.185h-2.37zm8.296 0c-.654 0-1.185.531-1.185 1.185v2.37c0 .654.531 1.185 1.185 1.185h2.37c.654 0 1.185-.531 1.185-1.185v-2.37c0-.654-.531-1.185-1.185-1.185h-2.37zm8.296 0c-.654 0-1.185.531-1.185 1.185v2.37c0 .654.531 1.185 1.185 1.185h2.37c.654 0 1.185-.531 1.185-1.185v-2.37c0-.654-.531-1.185-1.185-1.185h-2.37zM6.519 13.63c-.654 0-1.185.531-1.185 1.185v2.37c0 .654.531 1.185 1.185 1.185h2.37c.654 0 1.185-.531 1.185-1.185v-2.37c0-.654-.531-1.185-1.185-1.185h-2.37zm8.296 0c-.654 0-1.185.531-1.185 1.185v2.37c0 .654.531 1.185 1.185 1.185h2.37c.654 0 1.185-.531 1.185-1.185v-2.37c0-.654-.531-1.185-1.185-1.185h-2.37zm8.296 0c-.654 0-1.185.531-1.185 1.185v2.37c0 .654.531 1.185 1.185 1.185h2.37c.654 0 1.185-.531 1.185-1.185v-2.37c0-.654-.531-1.185-1.185-1.185h-2.37zM6.519 21.926c-.654 0-1.185.531-1.185 1.185v2.37c0 .654.531 1.185 1.185 1.185h2.37c.654 0 1.185-.531 1.185-1.185v-2.37c0-.654-.531-1.185-1.185-1.185h-2.37zm8.296 0c-.654 0-1.185.531-1.185 1.185v2.37c0 .654.531 1.185 1.185 1.185h2.37c.654 0 1.185-.531 1.185-1.185v-2.37c0-.654-.531-1.185-1.185-1.185h-2.37zm8.296 0c-.654 0-1.185.531-1.185 1.185v2.37c0 .654.531 1.185 1.185 1.185h2.37c.654 0 1.185-.531 1.185-1.185v-2.37c0-.654-.531-1.185-1.185-1.185h-2.37z"/></symbol><symbol id="icon--arrow-up-rounded" viewBox="0 0 32 32"><path d="M21.946 15.047c-.182.272-.499.409-.817.409-.227 0-.454-.091-.635-.227l-3.404-2.633v9.532c0 .59-.454 1.044-1.044 1.044s-1.044-.454-1.044-1.044v-9.441l-3.495 2.814a1.06 1.06 0 01-1.453-.136 1.06 1.06 0 01.136-1.453l5.174-4.176c.045-.045.091-.045.136-.091h.045c.045 0 .091-.045.136-.045h.045c.045 0 .091-.045.136-.045h.408c.045 0 .091.045.182.045h.045c.045.045.091.045.136.091l5.038 3.904c.545.363.59.999.272 1.453zM16 5.333C10.099 5.333 5.333 10.099 5.333 16S10.099 26.667 16 26.667 26.667 21.901 26.667 16 21.901 5.333 16 5.333z"/></symbol><symbol id="icon--camera-2" viewBox="0 0 32 32"><path d="M11.2 6.667c-.661 0-1.2.539-1.2 1.2v1.2c0 .661-.539 1.2-1.2 1.2H6.4a2.404 2.404 0 00-2.4 2.4v10.8c0 1.322 1.078 2.4 2.4 2.4h19.2c1.322 0 2.4-1.078 2.4-2.4v-10.8c0-1.322-1.078-2.4-2.4-2.4h-2.4c-.661 0-1.2-.539-1.2-1.2v-1.2c0-.661-.539-1.2-1.2-1.2h-9.6zm4.8 4.5c3.473 0 6.3 2.827 6.3 6.3s-2.827 6.3-6.3 6.3-6.3-2.827-6.3-6.3 2.827-6.3 6.3-6.3zm9 .9c.661 0 1.2.539 1.2 1.2s-.539 1.2-1.2 1.2c-.661 0-1.2-.539-1.2-1.2s.539-1.2 1.2-1.2zm-9 .6c-2.653 0-4.8 2.147-4.8 4.8s2.147 4.8 4.8 4.8 4.8-2.147 4.8-4.8-2.147-4.8-4.8-4.8z"/></symbol><symbol id="icon--icarcoins-color" viewBox="0 0 32 32"><path fill="#ffc500" d="M28 16c0 6.627-5.373 12-12 12S4 22.627 4 16 9.373 4 16 4s12 5.373 12 12z"/><path fill="#344251" d="M14.975 21.201h-1.642V10.799h1.642v10.402h-.001zm3.751.131a2.59 2.59 0 01-1.852-.724 2.333 2.333 0 01-.761-1.756v-5.698c0-.687.256-1.274.767-1.759a2.59 2.59 0 011.845-.728c.727 0 1.343.244 1.848.73s.758 1.073.758 1.756v1.186h-1.708v-1.213a.856.856 0 00-.278-.641.942.942 0 00-.674-.266.929.929 0 00-.666.266.86.86 0 00-.276.641v5.709c0 .251.093.464.276.638a.926.926 0 00.666.263.95.95 0 00.674-.262.843.843 0 00.278-.639v-1.432h1.709v1.449c0 .692-.257 1.278-.767 1.759a2.59 2.59 0 01-1.841.721l.001-.001z"/><path fill="#344251" d="M12 13.333h2.667v1.569H12v-1.569zm0 3.765h2.667v1.569H12v-1.569z"/></symbol><symbol id="icon--icarcoins" viewBox="0 0 32 32"><path d="M16 28C9.373 28 4 22.627 4 16S9.373 4 16 4s12 5.373 12 12-5.373 12-12 12zm-2.667-9.333v2.534h1.642V10.799h-1.642v2.534H12v1.569h1.333v2.196H12v1.569h1.333zm5.393 2.665l-.001.001a2.59 2.59 0 001.841-.721 2.324 2.324 0 00.767-1.759v-1.449h-1.709v1.432a.843.843 0 01-.278.639.95.95 0 01-.674.262.932.932 0 01-.666-.263.849.849 0 01-.276-.638v-5.709a.854.854 0 01.276-.641.926.926 0 01.666-.266.942.942 0 01.674.266c.182.168.283.4.278.641v1.213h1.708v-1.186c0-.684-.253-1.269-.758-1.756s-1.121-.73-1.848-.73a2.584 2.584 0 00-1.845.728c-.512.485-.767 1.072-.767 1.759v5.698c-.012.66.263 1.296.761 1.756a2.59 2.59 0 001.852.724z"/></symbol><symbol id="icon--language" viewBox="0 0 32 32"><path d="M7.467 5.333a2.132 2.132 0 00-2.133 2.133v12.8c0 1.179.955 2.133 2.133 2.133H22.4l4.267 4.267v-19.2a2.132 2.132 0 00-2.133-2.133H7.467zM10.866 9.6h1.733L16 18.133h-2l-.634-1.766H10.1l-.634 1.766h-2L10.865 9.6zm9.2 0h1.467v1.434h3.001v1.399c-.217 1.85-1.045 3.229-2.4 4.166.367.059.75.1 1.167.1v1.434a8.257 8.257 0 01-3.034-.566c-1.008.379-2.291.566-3.2.566v-1.434c.409 0 1.117-.042 1.567-.133-.809-.724-1.567-2.258-1.567-3.299h1.5c0 .787.804 2.183 1.766 2.733 1.412-.675 2.325-1.871 2.601-3.567h-5.867v-1.399h2.999V9.6zm-8.333 2.166l-1.134 3.2h2.267l-1.133-3.2z"/></symbol><symbol id="icon--link" viewBox="0 0 32 32"><path d="M8.719 10c-3.333 0-6.053 2.719-6.053 6.053s2.719 6.053 6.053 6.053h4.825V19.65H8.719c-2.018 0-3.684-1.667-3.684-3.684s1.667-3.684 3.684-3.684h4.825v-2.281H8.719zm9.737 0v2.456h4.825c2.018 0 3.684 1.667 3.684 3.684s-1.667 3.684-3.684 3.684h-4.825v2.456h4.825c3.333 0 6.053-2.719 6.053-6.053s-2.719-6.053-6.053-6.053h-4.825v-.175zm-8.509 4.825v2.456H22.14v-2.456H9.947z"/></symbol><symbol id="icon--off" viewBox="0 0 32 32"><path d="M17.778 6.667h-2.222v11.111h2.222V6.667zm5.366 2.411l-1.578 1.578a7.688 7.688 0 012.878 6.011c0 4.3-3.478 7.778-7.778 7.778a7.772 7.772 0 01-4.911-13.8l-1.567-1.567c-2.156 1.833-3.522 4.544-3.522 7.589 0 5.522 4.478 10 10 10s10-4.478 10-10c0-3.044-1.367-5.756-3.522-7.589z"/></symbol><symbol id="icon--setting-2" viewBox="0 0 32 32"><path d="M13.823 5.333c-.328 0-.544.217-.544.544l-.205 2.177c-.978.328-1.858.876-2.619 1.531L8.38 8.599c-.217-.111-.536-.013-.647.205l-2.177 3.81c-.217.328-.225.672.102.783l1.838 1.293c-.217.544-.205.986-.205 1.531s-.009.986.102 1.531l-1.838 1.293c-.217.111-.319.455-.102.783l2.177 3.81c.217.217.531.315.748.205l2.075-.885c.761.655 1.642 1.097 2.619 1.531l.205 2.177c0 .328.217.544.544.544h4.355c.328 0 .544-.217.544-.544l.205-2.177c.978-.328 1.858-.876 2.619-1.531l2.075.885c.217.111.536.013.647-.205l2.177-3.81c.111-.217.114-.566-.102-.783l-1.735-1.293c.111-.544.102-.986.102-1.531s.009-.986-.102-1.531l1.838-1.293c.217-.111.319-.455.102-.783l-2.177-3.81c-.217-.217-.531-.315-.748-.205l-2.075.885c-.761-.655-1.642-1.097-2.619-1.531l-.205-2.177c0-.217-.217-.442-.544-.442l-4.355-.001zm2.178 5.444c3.049 0 5.443 2.394 5.443 5.443s-2.394 5.443-5.443 5.443c-3.049 0-5.443-2.394-5.443-5.443s2.394-5.443 5.443-5.443zm0 2.177c-1.85 0-3.266 1.416-3.266 3.266s1.416 3.266 3.266 3.266 3.266-1.416 3.266-3.266-1.416-3.266-3.266-3.266z"/></symbol><symbol id="icon--calendar" viewBox="0 0 32 32"><path d="M11.494 9.362H9.839V5.335h1.655v4.027zM22.16 5.333h-1.654V9.36h1.654V5.333zm4.506 4.746v14.215a2.377 2.377 0 01-2.372 2.372H7.706a2.377 2.377 0 01-2.372-2.372V10.079a2.377 2.377 0 012.372-2.372h1.066v2.372h3.787V7.707h6.879v2.372h3.787V7.707h1.066a2.377 2.377 0 012.372 2.372h.002zm-2.372 4.725H7.706v9.491h16.588v-9.491zm-11.495 1.784H9.25v2.372h3.549v-2.372zm4.986 0h-3.57v2.372h3.57v-2.372zm4.963 0h-3.549v2.372h3.549v-2.372zm-9.949 3.549H9.25v2.372h3.549v-2.372zm4.986 0h-3.57v2.372h3.57v-2.372z"/></symbol><symbol id="icon--call" viewBox="0 0 32 32"><path d="M9.637 14.571c1.707 3.339 4.452 6.085 7.791 7.828l2.634-2.634a1.16 1.16 0 011.187-.26c1.336.408 2.782.668 4.23.668.668 0 1.187.52 1.187 1.187v4.118c0 .668-.52 1.187-1.187 1.187-11.13 0-20.146-9.016-20.146-20.146 0-.668.519-1.187 1.187-1.187h4.155c.631 0 1.187.519 1.187 1.187 0 1.484.223 2.894.668 4.23.148.408.037.89-.297 1.224L9.636 14.57z"/></symbol><symbol id="icon--car-front" viewBox="0 0 32 32"><path d="M26.167 18.467l-.92.92h-2.761v-1.8l3.68-1v1.88h.001zm-6.482 4.561h-7.361v-1.8h7.361v1.8zm-10.16-3.64H6.764l-.92-.92v-1.88l3.68 1v1.8h.001zm-.32-10.522c.12-.2.28-.4.56-.4h12.48c.28 0 .44.2.56.4.16.32 1.121 4.161 1.121 4.161H8.125s.92-3.839 1.08-4.161zm18.322 4.161h-1.721l-1.521-4.961c-.52-1.04-.92-1.4-2.16-1.4H9.883c-1.2 0-1.64.36-2.16 1.4l-1.521 4.961H4.481c-.28 0-.48.2-.48.44v.92c0 .24.2.44.48.44h.84l-.4.92v10.481c0 .24.2.44.48.44h1.84c.24 0 .44-.2.44-.44v-1.4h16.642v1.4c0 .24.2.44.44.44h1.84c.28 0 .48-.2.48-.44V15.747l-.4-.879h.84c.28 0 .48-.24.48-.48v-.92c0-.24-.2-.44-.48-.44h.008z"/></symbol><symbol id="icon--car-seat" viewBox="0 0 32 32"><path d="M10.89 24.45S9.838 20.85 8 23.446L8.588 28h15.965l.588-4.554c-1.836-2.596-2.89 1.004-2.89 1.004H10.89zm-1.052-3.672s2.033.906 2.008 2.669h9.451c-.024-1.763 2.008-2.669 2.008-2.669s-.294-3.55-.662-7.714c-.392-4.236-6.072-3.697-6.072-3.697s-5.681-.539-6.072 3.697c-.367 4.163-.662 7.714-.662 7.714h.001zm2.963-15.401c0 1.812-.734 3.354 3.77 3.354s3.77-1.544 3.77-3.354c0-1.836-7.541-1.836-7.541 0h.001z"/></symbol><symbol id="icon--car-side-front" viewBox="0 0 32 32"><path d="M29.11 18.387l1.557-.329v-.987l-1.377.298.599-3.622-.839-1.108-1.077-.329-1.406-2.455c-.389-.839-1.197-1.138-2.155-1.138l-5.478-.718-6.287.779c-1.227.21-1.975.508-2.095.928l-2.185 2.815-2.036-.241c-.21 0-.389.15-.359.359l.031.718c0 .15.119.269.269.329l-4.011 2.155-.298.749-.629 2.274.658 2.634 8.711 2.605 5.118-1.406c-.09-.508-.15-1.077-.09-1.676.119-1.765 1.138-2.994 2.246-2.964 1.736.06 1.916 1.676 1.795 3.442l-.031.15 5.538-1.497c-.119-.449.031-.959.119-1.466.241-1.227.539-1.616 1.466-1.676 1.108-.06 1.227.839 1.138 2.605l.987-.508.119-.718.002-.002zm-3.592-8.56l1.826 2.815-3.144.718-.478-3.263 1.796-.27zm-2.455.447l.359 3.263-5.299.867 1.765-3.652 3.174-.478zM11.3 18.566l.42 1.377-1.257.658-2.934-.688.241-1.348h3.53zm.238-8.919l7.544.839-2.155 3.892-8.083-1.227 2.693-3.504zM7.107 22.459L4.143 21.5l.031-1.197 2.934.959v1.197h-.001zm-4.939-4.641l.359-1.437 2.185 1.138-.06 1.406-2.005-.599-.478-.508h-.001zM28.6 14.315h.749l-.42 2.036h-.449l.119-2.036h.001zm-4.34.061l-.06 5.029-.599.21.119-5.238h.539l.002-.001zm-4.969 7.274c.119-1.585-.449-2.903-1.287-2.964s-1.676 1.197-1.795 2.844c-.15 1.616.478 2.934 1.318 2.934.867 0 1.616-1.257 1.765-2.815l-.001.001zm8.502-1.796c.09-1.197-.269-2.215-.867-2.274-.569-.06-1.138.928-1.227 2.155-.09 1.257.329 2.274.928 2.274.569 0 1.077-.987 1.168-2.155h-.002z"/></symbol><symbol id="icon--meter" viewBox="0 0 32 32"><path d="M13.748 20.077c-.809 1.444-.268 2.62.882 3.282s2.448.563 3.282-.882c.833-1.42 6.048-14.203 5.608-14.472-.466-.268-8.938 10.652-9.771 12.073l-.001-.001zM16 10.992c.514 0 1.029.024 1.542.123.514-.661 1.102-1.371 1.69-2.081a11.703 11.703 0 00-3.233-.442C9.265 8.592 4 14.248 4 21.473c0 .466.024.906.049 1.322.073.661.661 1.15 1.322 1.102a1.203 1.203 0 001.078-1.298c-.024-.367-.049-.735-.049-1.126 0-5.878 4.212-10.481 9.599-10.481H16zm8.668 1.494c-.343.882-.686 1.812-1.004 2.596 1.224 1.764 1.935 3.967 1.935 6.391 0 .392-.024.759-.049 1.15-.073.637.416 1.224 1.078 1.298h.123a1.18 1.18 0 001.176-1.102c.049-.442.073-.882.073-1.347 0-3.526-1.273-6.685-3.332-8.988v.002z"/></symbol><symbol id="icon--paint-brush" viewBox="0 0 32 32"><path d="M24.562 5.333c.556 0 1.043.185 1.459.554s.625.831.626 1.387c0 .5-.179 1.1-.537 1.798-2.635 4.992-4.48 7.977-5.536 8.953-.77.722-1.635 1.083-2.596 1.083-1 0-1.859-.367-2.578-1.102s-1.077-1.605-1.077-2.613c0-1.017.365-1.858 1.096-2.523l7.595-6.894c.469-.428.985-.642 1.547-.642h.001zM13.74 17.644c.309.603.732 1.119 1.268 1.547s1.133.73 1.792.905l.012.844c.032 1.69-.482 3.067-1.542 4.131s-2.443 1.595-4.149 1.595c-.976 0-1.842-.185-2.596-.554s-1.36-.875-1.815-1.519c-.455-.643-.799-1.369-1.03-2.179s-.347-1.682-.346-2.619l.489.357c.271.199.517.375.738.53.222.155.456.299.703.434s.429.202.546.202c.326 0 .544-.147.654-.442.198-.524.427-.97.685-1.339s.534-.67.827-.905c.293-.235.642-.423 1.047-.565s.814-.243 1.227-.303c.413-.06.909-.102 1.488-.126l.001.002z"/></symbol><symbol id="icon--quote-left" viewBox="0 0 32 32"><path d="M9.271 13.98c2.892 0 5.246 2.352 5.246 5.246s-2.352 5.246-5.246 5.246a5.251 5.251 0 01-5.246-5.246L4 18.491C4 12.682 8.707 7.999 14.492 7.999v2.99a7.42 7.42 0 00-5.295 2.205 8.673 8.673 0 00-.76.858c.271-.049.564-.073.834-.073l.001-.001zm13.483 0c2.892 0 5.246 2.352 5.246 5.246s-2.352 5.246-5.246 5.246a5.251 5.251 0 01-5.246-5.246l-.025-.735c0-5.809 4.707-10.492 10.492-10.492v2.99a7.462 7.462 0 00-5.295 2.205 6.161 6.161 0 00-.735.858c.271-.049.539-.073.81-.073l-.001-.001z"/></symbol><symbol id="icon--quote-right" viewBox="0 0 32 32"><path d="M9.245 18.491C6.352 18.491 4 16.139 4 13.246s2.352-5.245 5.245-5.245a5.25 5.25 0 015.245 5.245l.025.735c0 5.81-4.707 10.492-10.492 10.492v-2.99a7.42 7.42 0 005.295-2.205c.271-.271.514-.564.76-.858a4.804 4.804 0 01-.834.073l.001-.001zm13.485 0c-2.893 0-5.245-2.352-5.245-5.245s2.352-5.245 5.245-5.245a5.25 5.25 0 015.245 5.245l.025.735c0 5.81-4.681 10.492-10.492 10.492v-2.99c2.01 0 3.898-.784 5.295-2.205.271-.271.539-.564.76-.858a4.598 4.598 0 01-.834.073l.001-.001z"/></symbol><symbol id="icon--search-car" viewBox="0 0 32 32"><path d="M27.483 25.673l-1.812 1.812a1.683 1.683 0 01-2.424 0l-4.946-4.922a9.823 9.823 0 01-4.482 1.077c-5.412 0-9.82-4.407-9.82-9.82 0-5.435 4.407-9.82 9.82-9.82 5.435 0 9.844 4.383 9.844 9.82 0 1.616-.417 3.134-1.102 4.505l4.922 4.922a1.683 1.683 0 010 2.424l-.002.002zm-7.958-13.665h-.832l-.734-2.424c-.269-.49-.442-.662-1.029-.662h-5.901c-.563 0-.76.172-1.029.662l-.71 2.424h-.857a.219.219 0 00-.22.22v.465c0 .122.097.22.22.22h.417l-.197.442v5.093a.22.22 0 00.22.221h.906c.097 0 .22-.097.22-.221v-.662h7.983v.662a.22.22 0 00.221.221h.881a.22.22 0 00.221-.221v-5.093l-.197-.442h.417a.22.22 0 00.221-.22v-.465a.219.219 0 00-.221-.22h.001zM10.71 9.976c.05-.097.122-.172.269-.172h5.999c.148 0 .221.073.269.172.073.172.539 2.032.539 2.032h-7.591s.442-1.861.515-2.032zm.171 5.143H9.535l-.442-.442v-.931l1.787.49v.881l.001.003zm4.872 1.762h-3.551V16h3.551v.881zm3.11-2.202l-.442.442h-1.346v-.881l1.787-.49v.931l.001-.003z"/></symbol><symbol id="icon--shield" viewBox="0 0 32 32"><path d="M16.485 4L6.667 8.363v6.546c0 8.542 7.024 12.531 9.818 13.091 2.794-.56 9.818-4.549 9.818-13.091V8.363L16.485 4z"/></symbol><symbol id="icon--transmission" viewBox="0 0 32 32"><path d="M16 26.667c5.899 0 10.667-4.767 10.667-10.667S21.9 5.333 16 5.333C10.101 5.333 5.333 10.1 5.333 16S10.1 26.667 16 26.667zm-6.667-15.85c0-.822.627-1.484 1.405-1.484s1.405.662 1.405 1.484v3.699h1.405v-3.699c0-.822.627-1.484 1.405-1.484.756 0 1.405.662 1.405 1.484v3.699h3.501v-3.699c0-.822.627-1.484 1.405-1.484s1.405.662 1.405 1.484V16c0 .822-.627 1.484-1.405 1.484h-.713v3.699c0 .822-.627 1.484-1.405 1.484s-1.405-.662-1.405-1.484v-3.699h-1.383v3.699c0 .822-.648 1.484-1.405 1.484-.778 0-1.405-.662-1.405-1.484v-3.699h-1.405v3.699c0 .822-.627 1.484-1.405 1.484s-1.405-.662-1.405-1.484V10.818z"/></symbol><symbol id="icon--two-cars" viewBox="0 0 32 32"><path d="M28.954 9.714h-1.387s-.626-1.387-.844-1.877c-.409-.816-.626-1.17-1.714-1.17h-6.504c-.98 0-1.334.354-1.714 1.17l-.354.679c.571.164 1.198.599 1.198.599s.217-.435.325-.626c.082-.164.217-.299.435-.299h6.694c.217 0 .354.136.463.299.108.299.489 1.986.489 1.986h-7.619l1.088 3.048h.707c.734 0 .98.217.98.953v2.096h2.966v1.523h-3.728v.763h5.932v1.144c0 .217.164.381.381.381h1.469a.373.373 0 00.381-.381v-8l-.299-.763h.653a.373.373 0 00.381-.381v-.763a.373.373 0 00-.381-.381h.002zm-1.088 4.571l-.763.763h-1.469v-1.523l2.232-.844v1.604zm-7.429.381c0-.217-.164-.381-.354-.381h-1.415l-1.225-3.402c-.409-.871-.734-1.17-1.714-1.17H7.375c-.953 0-1.279.299-1.714 1.17l-1.225 3.402H3.049a.373.373 0 00-.381.381v.763c0 .217.164.381.381.381h.679l-.325.763v8.762c0 .217.164.381.381.381h1.469a.373.373 0 00.381-.381v-1.144h11.863v1.144c0 .217.164.381.354.381h1.497c.19 0 .354-.164.354-.381v-8.762l-.299-.763h.679c.19 0 .354-.164.354-.381v-.763h.004zm-13.606-3.13c.108-.164.217-.299.463-.299h8.544c.217 0 .354.136.435.299.136.299.898 3.511.898 3.511H5.96s.763-3.211.871-3.511zm.273 8.082H4.9l-.734-.763v-1.606l2.939.844v1.525zm7.428 3.047H8.6v-1.523h5.932v1.523zm4.435-3.809l-.734.763h-2.232v-1.523l2.966-.844v1.604z"/></symbol><symbol id="icon--user-formal" viewBox="0 0 32 32"><path d="M22.218 21.277c-2.874-1.077-3.795-1.977-3.795-3.886 0-1.167.876-.787 1.258-2.897.157-.875.942-.022 1.101-2.021 0-.787-.426-.988-.426-.988s.203-1.19.292-2.088c.113-1.145-.651-4.064-4.647-4.064s-4.76 2.919-4.647 4.064c.09.9.292 2.088.292 2.088s-.426.203-.426.988c.157 1.998.942 1.145 1.101 2.021.381 2.111 1.258 1.728 1.258 2.897 0 1.909-.92 2.807-3.795 3.886-2.897 1.055-4.783 2.155-4.783 2.897v2.493h9.027l1.213-3.57-.605-1.302 1.326-.92 1.302.92-.605 1.302 1.326 3.57h9.027v-2.493c0-.741-1.887-1.841-4.783-2.897h-.008z"/></symbol><symbol id="icon--camera" viewBox="0 0 32 32"><path d="M16 22.692c2.955 0 5.359-2.404 5.359-5.359S18.955 11.974 16 11.974s-5.359 2.404-5.359 5.359 2.404 5.359 5.359 5.359zM12.795 6.667h6.41l1.953 2.103h3.405c1.152 0 2.103 1.002 2.103 2.154v12.82c0 1.152-.952 2.154-2.103 2.154H7.436c-1.152 0-2.103-1.002-2.103-2.154v-12.82c0-1.152.952-2.154 2.103-2.154h3.405l1.953-2.103zm-.201 10.666c0-1.903 1.502-3.405 3.405-3.405s3.405 1.502 3.405 3.405c0 1.903-1.502 3.405-3.405 3.405s-3.405-1.502-3.405-3.405z"/></symbol><symbol id="icon--device-desktop" viewBox="0 0 32 32"><path d="M25.804 18.405V7.478H6.197v10.927h19.607zm0-13.072c1.175 0 2.196.971 2.196 2.145v13.071c0 1.175-1.021 2.196-2.196 2.196h-7.608l2.145 3.268v1.073h-8.68v-1.073l2.145-3.268H6.198c-1.175 0-2.196-1.021-2.196-2.196V7.478c0-1.175 1.021-2.145 2.196-2.145h19.608z"/></symbol><symbol id="icon--device-phone" viewBox="0 0 32 32"><path d="M21.661 22.536V7.268H10.223v15.268h11.438zm-3.523 3.268v-1.073h-4.392v1.073h4.392zM20.282 4c1.788 0 3.268 1.481 3.268 3.268v17.464c0 1.788-1.481 3.268-3.268 3.268h-8.681c-1.788 0-3.268-1.481-3.268-3.268V7.268C8.333 5.48 9.814 4 11.601 4h8.681z"/></symbol><symbol id="icon--device-tablet" viewBox="0 0 32 32"><path d="M23.636 22.984V7h-15v15.984h15zm-7.5 4.031c.844 0 1.5-.656 1.5-1.5s-.656-1.5-1.5-1.5-1.5.656-1.5 1.5.656 1.5 1.5 1.5zM23.167 4a2.501 2.501 0 012.485 2.485v19.031a2.501 2.501 0 01-2.485 2.485H9.151a2.501 2.501 0 01-2.485-2.485V6.485A2.501 2.501 0 019.151 4h14.016z"/></symbol><symbol id="icon--folder" viewBox="0 0 32 32"><path d="M13.846 8L16 10.154h8.564c1.152 0 2.103 1.002 2.103 2.154v10.667c0 1.152-.952 2.154-2.103 2.154H7.437c-1.152 0-2.103-1.002-2.103-2.154v-12.82c0-1.152.952-2.154 2.103-2.154L13.846 8z"/></symbol><symbol id="icon--photo" viewBox="0 0 32 32"><path d="M11.834 17.777L7.723 23.11h16.555l-5.333-7.111-4.111 5.333-3-3.555zm14.833 6.5c0 1.278-1.111 2.389-2.389 2.389H7.723c-1.278 0-2.389-1.111-2.389-2.389V7.722c0-1.278 1.111-2.389 2.389-2.389h16.555c1.278 0 2.389 1.111 2.389 2.389v16.555z"/></symbol><symbol id="icon--play" viewBox="0 0 32 32"><path d="M13.847 20.807L20.257 16l-6.41-4.807v9.615zM16 5.333c5.909 0 10.667 4.758 10.667 10.667S21.909 26.667 16 26.667 5.333 21.909 5.333 16 10.091 5.333 16 5.333z"/></symbol><symbol id="icon--video-camera" viewBox="0 0 32 32"><path d="M21.743 12.764V9.687c0-1.23-1.026-2.154-2.154-2.154H6.154C4.923 7.533 4 8.456 4 9.687v12.717c0 1.23 1.026 2.154 2.154 2.154h13.435c1.23 0 2.154-.923 2.154-2.154v-3.077l6.256 3.897V8.866c.102 0-6.256 3.897-6.256 3.897v.001z"/></symbol><symbol id="icon--video" viewBox="0 0 32 32"><path d="M23.211 6.667H28v16.846c0 1.296-1.071 2.423-2.366 2.423H6.366C5.07 25.936 4 24.809 4 23.513V9.09c0-1.296 1.071-2.423 2.366-2.423h1.239l2.366 4.845h3.606l-2.366-4.845h2.366L16 11.512h3.606l-2.423-4.845h2.423l2.423 4.845h3.606l-2.424-4.845z"/></symbol><symbol id="icon--apps" viewBox="0 0 32 32"><path d="M21.302 26.667v-5.365h5.365v5.365h-5.365zm0-7.985v-5.365h5.365v5.365h-5.365zm-7.984-7.984V5.333h5.365v5.365h-5.365zm7.984-5.365h5.365v5.365h-5.365V5.333zm-7.984 13.349v-5.365h5.365v5.365h-5.365zm-7.985 0v-5.365h5.365v5.365H5.333zm0 7.985v-5.365h5.365v5.365H5.333zm7.985 0v-5.365h5.365v5.365h-5.365zM5.333 10.698V5.333h5.365v5.365H5.333z"/></symbol><symbol id="icon--arrow-down" viewBox="0 0 32 32"><path d="M14.667 5.333V21.56l-7.453-7.453L5.334 16l10.667 10.667L26.668 16l-1.88-1.88-7.453 7.44V5.333z"/></symbol><symbol id="icon--arrow-left" viewBox="0 0 32 32"><path d="M26.667 14.667H10.44l7.453-7.453L16 5.334 5.333 16.001 16 26.668l1.88-1.88-7.44-7.453h16.227z"/></symbol><symbol id="icon--arrow-right" viewBox="0 0 32 32"><path d="M5.333 14.667H21.56l-7.453-7.453L16 5.334l10.667 10.667L16 26.668l-1.88-1.88 7.44-7.453H5.333z"/></symbol><symbol id="icon--arrow-up" viewBox="0 0 32 32"><path d="M14.667 26.667V10.44l-7.453 7.453L5.334 16 16.001 5.333 26.668 16l-1.88 1.88-7.453-7.44v16.227z"/></symbol><symbol id="icon--caret-down" viewBox="0 0 32 32"><path d="M5.333 10.667L16 21.334l10.667-10.667z"/></symbol><symbol id="icon--caret-up" viewBox="0 0 32 32"><path d="M5.333 21.333L16 10.666l10.667 10.667z"/></symbol><symbol id="icon--chevron-down" viewBox="0 0 32 32"><path d="M7.833 9.333L16 17.5l8.167-8.167 2.5 2.5L16 22.5 5.333 11.833z"/></symbol><symbol id="icon--chevron-left" viewBox="0 0 32 32"><path d="M22.5 24.167l-2.5 2.5L9.333 16 20 5.333l2.5 2.5L14.333 16z"/></symbol><symbol id="icon--chevron-right" viewBox="0 0 32 32"><path d="M9.333 24.167L17.5 16 9.333 7.833l2.5-2.5L22.5 16 11.833 26.667z"/></symbol><symbol id="icon--chevron-up" viewBox="0 0 32 32"><path d="M7.833 22.5l-2.5-2.5L16 9.333 26.667 20l-2.5 2.5L16 14.333z"/></symbol><symbol id="icon--menu" viewBox="0 0 32 32"><path d="M5.333 22.667h21.333V20H5.333v2.667zm0-5.334h21.333v-2.667H5.333v2.667zm0-8V12h21.333V9.333H5.333z"/></symbol><symbol id="icon--more-alt" viewBox="0 0 32 32"><path d="M16 21.333a2.667 2.667 0 100 5.334 2.667 2.667 0 000-5.334zm0-8a2.667 2.667 0 100 5.334 2.667 2.667 0 000-5.334zm0-8a2.667 2.667 0 100 5.334 2.667 2.667 0 000-5.334z"/></symbol><symbol id="icon--more" viewBox="0 0 32 32"><path d="M16 13.333c1.435 0 2.683 1.248 2.683 2.683S17.436 18.699 16 18.699c-1.435 0-2.683-1.247-2.683-2.683s1.248-2.683 2.683-2.683zm7.984 0c1.435 0 2.683 1.248 2.683 2.683s-1.247 2.683-2.683 2.683c-1.435 0-2.683-1.247-2.683-2.683s1.247-2.683 2.683-2.683zm-15.968 0c1.435 0 2.683 1.248 2.683 2.683s-1.248 2.683-2.683 2.683c-1.435 0-2.683-1.247-2.683-2.683s1.248-2.683 2.683-2.683z"/></symbol><symbol id="icon--briefcase" viewBox="0 0 32 32"><path d="M18.153 9.59V7.436h-4.307V9.59h4.307zm6.41 0c1.202 0 2.103.952 2.103 2.154v11.718c0 1.202-.901 2.154-2.103 2.154H7.436c-1.202 0-2.103-.952-2.103-2.154V11.744c0-1.202.901-2.154 2.103-2.154h4.307V7.436c0-1.202.901-2.103 2.103-2.103h4.307c1.202 0 2.103.901 2.103 2.103V9.59h4.307z"/></symbol><symbol id="icon--clock-fill" viewBox="0 0 32 32"><path d="M20.507 20.506l.852-1.402-4.807-2.904v-5.559H14.95v6.41l5.558 3.456zM16 5.333c5.859 0 10.667 4.807 10.667 10.667S21.86 26.667 16 26.667C10.141 26.667 5.333 21.86 5.333 16S10.14 5.333 16 5.333z"/></symbol><symbol id="icon--compass" viewBox="0 0 32 32"><path d="M18.354 18.353l4.057-8.764-8.764 4.057L9.59 22.41l8.764-4.057zM16 5.333c5.909 0 10.667 4.758 10.667 10.667S21.909 26.667 16 26.667 5.333 21.909 5.333 16 10.091 5.333 16 5.333zm0 9.515c.651 0 1.152.501 1.152 1.152s-.501 1.152-1.152 1.152c-.651 0-1.152-.501-1.152-1.152s.501-1.152 1.152-1.152z"/></symbol><symbol id="icon--hot" viewBox="0 0 32 32"><path d="M15.704 24.624a5.336 5.336 0 005.38-5.38c0-1.582-.211-3.059-.633-4.536-1.16 1.53-3.218 2.48-5.222 2.901s-3.165 1.636-3.165 3.481c0 1.952 1.636 3.534 3.64 3.534v-.001zM17.708 4c4.378 3.534 7.332 8.967 7.332 15.033 0 4.958-4.062 8.967-9.02 8.967S7 23.991 7 19.033c0-3.798 1.371-7.332 3.64-10.022v.422c0 2.321 1.741 4.167 4.062 4.167s3.851-1.847 3.851-4.167c0-2.426-.844-5.433-.844-5.433h-.001z"/></symbol><symbol id="icon--layer" viewBox="0 0 32 32"><path d="M16.016 21.616c-3.784-2.935-7.555-5.883-11.349-8.808L16.016 4l11.349 8.808c-3.794 2.924-7.565 5.872-11.349 8.808zm0 3.251l9.281-7.271 2.069 1.596L16.017 28 4.668 19.192l2.069-1.596 9.279 7.271z"/></symbol><symbol id="icon--location" viewBox="0 0 32 32"><path d="M16.395 15.38c1.634 0 2.986-1.352 2.986-2.986s-1.352-2.986-2.986-2.986c-1.634 0-2.986 1.352-2.986 2.986s1.352 2.986 2.986 2.986zm0-11.38a8.344 8.344 0 018.395 8.395c0 6.31-8.395 15.605-8.395 15.605S8 18.704 8 12.395A8.344 8.344 0 0116.395 4z"/></symbol><symbol id="icon--lock" viewBox="0 0 32 32"><path d="M16.01 4a6.842 6.842 0 00-6.857 6.857V12a2.29 2.29 0 00-2.286 2.286v11.428A2.29 2.29 0 009.153 28h13.714a2.29 2.29 0 002.286-2.286V14.286A2.29 2.29 0 0022.867 12v-1.143A6.842 6.842 0 0016.01 4zm0 2.285c2.603 0 4.571 1.969 4.571 4.571v1.143h-9.143v-1.143c0-2.603 1.969-4.571 4.571-4.571h.001zm0 11.429c1.259 0 2.286 1.027 2.286 2.286s-1.027 2.286-2.286 2.286c-1.259 0-2.286-1.027-2.286-2.286s1.027-2.286 2.286-2.286z"/></symbol><symbol id="icon--paragraph" viewBox="0 0 32 32"><path d="M5.333 6.667h21.333v2.62H5.333v-2.62zm0 13.286V17.27h21.333v2.683H5.333zm21.334-7.985v2.683H5.334v-2.683h21.333zm-7.985 10.667v2.62H5.333v-2.62h13.349z"/></symbol><symbol id="icon--poll" viewBox="0 0 32 32"><path d="M21.944 21.944v-4.778h-2.389v4.778h2.389zm-4.777 0V10.056h-2.333v11.888h2.333zm-4.723 0v-8.333h-2.389v8.333h2.389zM24.277 5.333c1.278 0 2.389 1.111 2.389 2.389v16.555c0 1.278-1.111 2.389-2.389 2.389H7.722c-1.278 0-2.389-1.111-2.389-2.389V7.722c0-1.278 1.111-2.389 2.389-2.389h16.555z"/></symbol><symbol id="icon--user" viewBox="0 0 32 32"><path d="M16 6.667a4.74 4.74 0 100 9.482 4.74 4.74 0 000-9.482zm0 11.703c-3.56 0-10.667 1.787-10.667 5.333v2.963h21.333v-2.963c0-3.546-7.106-5.333-10.667-5.333z"/></symbol><symbol id="icon--users" viewBox="0 0 32 32"><path d="M12 6.667c-2.963 0-5.333 2.37-5.333 5.333s2.37 5.333 5.333 5.333 5.333-2.37 5.333-5.333S14.963 6.667 12 6.667zm0 2.667c1.481 0 2.667 1.185 2.667 2.667S13.482 14.668 12 14.668c-1.482 0-2.667-1.185-2.667-2.667S10.518 9.334 12 9.334zm9.925 0c-1.778 0-3.259 1.481-3.259 3.259s1.481 3.259 3.259 3.259c1.778 0 3.259-1.481 3.259-3.259s-1.333-3.259-3.259-3.259zm.741 8c-1.926 0-3.407.741-4.444 1.481 3.111 1.778 4.296 4.444 4.444 4.593l.148.296V24h6.519v-2.222s-1.63-4.444-6.667-4.444zM12 18.667C4.889 18.667 2.667 24 2.667 24v2.667h18.667V24s-2.222-5.333-9.333-5.333H12zm0 2.666c4.593 0 6.074 2.667 6.074 2.667H5.926S7.407 21.333 12 21.333z"/></symbol><symbol id="icon--validated-buyer" viewBox="0 0 32 32"><path d="M13.602 4c-2.653 0-4.8 2.147-4.8 4.8s2.147 4.8 4.8 4.8 4.8-2.147 4.8-4.8-2.147-4.8-4.8-4.8zm0 12.002c-7.323 0-9.602 4.8-9.602 4.8v2.4h10.314c-.365-2.372.352-4.889 2.175-6.714.061-.061.127-.094.187-.15a14.066 14.066 0 00-3.075-.337v.001zm8.402 0c-1.538 0-3.066.59-4.238 1.763-2.344 2.344-2.344 6.132 0 8.476s6.132 2.344 8.476 0a5.987 5.987 0 000-8.476 5.98 5.98 0 00-4.238-1.763zm2.137 3.338l1.725 1.725-4.463 4.426-3.263-3.225 1.725-1.725 1.538 1.575 2.738-2.776z"/></symbol><symbol id="icon--verified-sheild" viewBox="0 0 32 32"><path d="M13.876 21.464l8.732-8.732-1.532-1.532-7.2 7.149-2.809-2.809-1.532 1.532 4.341 4.392zM16.071 4l9.804 4.392v6.536c0 6.026-4.187 11.694-9.804 13.072-5.617-1.379-9.804-7.047-9.804-13.072V8.392l9.804-4.391z"/></symbol><symbol id="icon--product-bump-square" viewBox="0 0 32 32"><path fill="#3ad94e" d="M9.333 4h13.333a5.333 5.333 0 015.333 5.333v13.333a5.333 5.333 0 01-5.333 5.333H9.333A5.333 5.333 0 014 22.666V9.333A5.333 5.333 0 019.333 4z"/><path fill="#fff" d="M16 14.25l-3.556 3.5h2.667V23h1.778v-5.25h2.667L16 14.25zM22.222 9H9.778C8.791 9 8 9.787 8 10.75v10.5c0 .966.796 1.75 1.778 1.75h3.556v-1.75H9.778V12.5h12.444v8.75h-3.556V23h3.556c.982 0 1.778-.784 1.778-1.75v-10.5C24 9.784 23.204 9 22.222 9z"/></symbol><symbol id="icon--product-bump" viewBox="0 0 32 32"><path fill="#3ad94e" d="M16 13.333l-5.333 5.333h4v8h2.667v-8h4l-5.333-5.333zm9.333-8H6.666c-1.48 0-2.667 1.2-2.667 2.667v16a2.667 2.667 0 002.667 2.667h5.333V24H6.666V10.667h18.667V24H20v2.667h5.333A2.667 2.667 0 0028 24V8a2.667 2.667 0 00-2.667-2.667z"/></symbol><symbol id="icon--product-combo-square" viewBox="0 0 32 32"><path fill="#e35805" d="M9.333 4h13.333a5.333 5.333 0 015.333 5.333v13.333a5.333 5.333 0 01-5.333 5.333H9.333A5.333 5.333 0 014 22.666V9.333A5.333 5.333 0 019.333 4z"/><path fill="#fff" d="M16 9.333c-.737 0-1.333.568-1.333 1.27 0 .533.347.982.833 1.171l-2.167 5.178-2.979-2.361c.193-.221.313-.504.313-.813 0-.702-.597-1.27-1.333-1.27s-1.333.568-1.333 1.27c0 .702.597 1.27 1.333 1.27.091 0 .185-.003.271-.02l1.125 5.099h10.542l1.125-5.099c.086.017.18.02.271.02.737 0 1.333-.568 1.333-1.27s-.597-1.27-1.333-1.27c-.737 0-1.333.568-1.333 1.27 0 .31.12.593.313.813l-2.979 2.361-2.167-5.178c.487-.189.833-.637.833-1.171 0-.702-.597-1.27-1.333-1.27h-.001zm-5.333 11.429v1.905h10.666v-1.905H10.667z"/></symbol><symbol id="icon--product-combo" viewBox="0 0 32 32"><path fill="#e35805" d="M15.999 5.333c-1.105 0-2 .877-2 1.959 0 .823.52 1.515 1.25 1.806l-3.25 7.99-4.469-3.643c.289-.341.469-.777.469-1.255 0-1.082-.895-1.959-2-1.959s-2 .877-2 1.959.895 1.959 2 1.959c.137 0 .277-.004.406-.03l1.688 7.867h15.812l1.688-7.867c.129.026.27.03.406.03 1.105 0 2-.877 2-1.959s-.895-1.959-2-1.959-2 .877-2 1.959c0 .478.18.915.469 1.255l-4.469 3.643-3.25-7.99c.73-.291 1.25-.983 1.25-1.806 0-1.082-.895-1.959-2-1.959h-.001zM8 22.966v2.939h15.999v-2.939H8z"/></symbol><symbol id="icon--product-featured-square" viewBox="0 0 32 32"><path fill="#0162dd" d="M9.333 4h13.333a5.333 5.333 0 015.333 5.333v13.333a5.333 5.333 0 01-5.333 5.333H9.333A5.333 5.333 0 014 22.666V9.333A5.333 5.333 0 019.333 4z"/><path fill="#fff" d="M25 16c0 4.971-4.029 9-9 9s-9-4.029-9-9 4.029-9 9-9 9 4.029 9 9z"/><path fill="#0162dd" d="M16 19.292L12.909 21l.591-3.619L11 14.82l3.455-.528L16 11l1.545 3.292L21 14.82l-2.5 2.561.591 3.619z"/></symbol><symbol id="icon--product-featured" viewBox="0 0 32 32"><path fill="#0162dd" d="M28 16c0 6.627-5.373 12-12 12S4 22.627 4 16 9.373 4 16 4s12 5.373 12 12z"/><path fill="#fff" d="M16 20.389l-4.12 2.277.787-4.824-3.333-3.416 4.607-.704 2.06-4.389 2.06 4.389 4.607.704-3.333 3.416.787 4.824z"/></symbol><symbol id="icon--product-highlight-square" viewBox="0 0 32 32"><path d="M9.333 4h13.333a5.333 5.333 0 015.333 5.333v13.333a5.333 5.333 0 01-5.333 5.333H9.333A5.333 5.333 0 014 22.666V9.333A5.333 5.333 0 019.333 4z"/><path fill="#fff" d="M7 16.5v-.003c.001-1.072.379-2.041 1.066-2.913 1.165-1.478 2.747-2.294 4.535-2.746a11.034 11.034 0 015.041-.089c.249.052.367.169.45.396.503 1.376.785 2.792.877 4.255.023.368.033.733.031 1.097v.006c.002.364-.008.729-.031 1.097a15.055 15.055 0 01-.877 4.255c-.083.227-.201.343-.45.396a11.034 11.034 0 01-5.041-.089c-1.787-.452-3.37-1.268-4.535-2.746-.688-.872-1.065-1.841-1.066-2.913V16.5zM25 15h-4.5v2.4H25V15zm-.623-5.757l-4.432.781.417 2.364 4.432-.781zm.417 12.194l-4.432-.781-.417 2.364 4.432.781z"/></symbol><symbol id="icon--product-highlight" viewBox="0 0 32 32"><path d="M4 16.667v-.005c.001-1.429.505-2.721 1.422-3.884 1.553-1.97 3.663-3.058 6.046-3.661 2.226-.563 4.469-.593 6.721-.119.332.07.489.225.6.528a20.064 20.064 0 011.17 5.673c.031.49.044.978.041 1.463v.01c.002.485-.01.972-.041 1.463a20.03 20.03 0 01-1.17 5.673c-.111.303-.268.458-.6.528-2.252.474-4.495.445-6.721-.119-2.383-.603-4.493-1.691-6.046-3.661-.917-1.163-1.421-2.455-1.422-3.884v-.005zm24-2h-6v3.2h6v-3.2zm-.83-7.677l-5.909 1.042.556 3.151 5.909-1.042zm.556 16.259l-5.909-1.042-.556 3.151L27.17 26.4z"/></symbol><symbol id="icon--product-hotdeal-square" viewBox="0 0 32 32"><path d="M9.333 4h13.333a5.333 5.333 0 015.333 5.333v13.333a5.333 5.333 0 01-5.333 5.333H9.333A5.333 5.333 0 014 22.666V9.333A5.333 5.333 0 019.333 4z"/><path fill="#fff" d="M13.265 19.726c.905-1.476 1.138-2.937 1.138-2.937s.711 1.032.427 2.646c1.256-1.561 1.493-4.048 1.304-5 2.839 2.215 4.053 7.011 2.417 10.566 8.698-5.494 2.163-13.714 1.026-14.64.379.926.451 2.494-.315 3.254-1.297-5.489-4.503-6.614-4.503-6.614.379 2.831-1.375 5.926-3.066 8.239-.059-1.129-.122-1.908-.654-2.988-.119 2.051-1.523 3.722-1.903 5.777-.515 2.782.386 4.82 3.807 6.972-1.074-2.496-.502-3.927.324-5.274z"/></symbol><symbol id="icon--product-hotdeal" viewBox="0 0 32 32"><path d="M12.516 20.968c1.24-1.968 1.56-3.916 1.56-3.916s.975 1.376.585 3.528c1.723-2.081 2.048-5.397 1.788-6.667 3.894 2.954 5.558 9.348 3.315 14.088 11.929-7.325 2.967-18.285 1.407-19.52.52 1.235.619 3.325-.432 4.339-1.778-7.319-6.176-8.819-6.176-8.819.52 3.774-1.885 7.902-4.204 10.986-.082-1.505-.168-2.544-.897-3.984-.164 2.734-2.089 4.963-2.61 7.702-.706 3.71.529 6.426 5.221 9.296-1.473-3.328-.689-5.235.444-7.032z"/></symbol><symbol id="icon--product-showcase-square" viewBox="0 0 32 32"><path d="M9.333 4h13.333a5.333 5.333 0 015.333 5.333v13.333a5.333 5.333 0 01-5.333 5.333H9.333A5.333 5.333 0 014 22.666V9.333A5.333 5.333 0 019.333 4z"/><path fill="#fff" d="M21.677 12.649l.862-1.391-1.391-.901.157-1.607-1.666-.215-.588-1.528-1.567.509-1.214-1.117-1.195 1.117-1.587-.509-.588 1.528-1.666.215.157 1.607-1.391.901.862 1.391L10 14.021l1.391.901-.157 1.607 1.666.215.588 1.508 1.587-.49 1.195 1.117 1.214-1.117 1.567.49.588-1.508 1.666-.215-.157-1.607 1.391-.901-.862-1.372zm-3.899 6.368l-.705.666-.803.745-.803-.745-.705-.666-.921.294-.94.294V25.6l3.311-2.018L19.64 25.6v-5.975l-1.861-.608z"/></symbol><symbol id="icon--product-showcase" viewBox="0 0 32 32"><path d="M24.171 11.084l1.161-1.873-1.873-1.214.211-2.164-2.243-.29-.792-2.058-2.111.686-1.636-1.504-1.61 1.504-2.137-.686-.792 2.058-2.243.29.211 2.164-1.873 1.214 1.161 1.873-1.161 1.847 1.873 1.214-.211 2.164 2.243.29.792 2.032 2.137-.659 1.61 1.504 1.636-1.504 2.111.659.792-2.032 2.243-.29-.211-2.164 1.873-1.214-1.161-1.847zM18.92 19.66l-.95.897-1.082 1.003-1.082-1.003-.95-.897-1.24.396-1.266.396v8.074l4.459-2.718 4.617 2.718v-8.048l-2.507-.819z"/></symbol><symbol id="icon--product-trusted" viewBox="0 0 32 32"><path d="M16 28C9.383 28 4 22.617 4 16S9.383 4 16 4s12 5.383 12 12-5.383 12-12 12z"/><path fill="#fff" d="M17.336 9.25L13.3 13.395c-.218.218-.436.545-.436.982v6.655c0 .764.545 1.309 1.309 1.309h5.564c.545 0 .982-.327 1.2-.764l2.073-4.691c.109-.218.218-.545.218-.873v-.655c0-.764-.655-1.418-1.309-1.418h-4.036s.982-2.727.982-3.164c-.218-1.2-1.527-1.527-1.527-1.527zM8.5 13.613h1.419v8.727H8.5v-8.727z"/></symbol><symbol id="icon--product-video-square" viewBox="0 0 32 32"><path d="M9.333 4h13.333a5.333 5.333 0 015.333 5.333v13.333a5.333 5.333 0 01-5.333 5.333H9.333A5.333 5.333 0 014 22.666V9.333A5.333 5.333 0 019.333 4z"/><path fill="#fff" d="M20.393 14.149v-2.053c0-.788-.694-1.429-1.544-1.429H9.378c-.85 0-1.544.641-1.544 1.429v8.475c0 .788.694 1.429 1.544 1.429h9.471c.85 0 1.544-.641 1.544-1.429v-2.07l4.441 2.595v-9.527l-4.441 2.579z"/></symbol><symbol id="icon--product-video" viewBox="0 0 32 32"><path d="M21.731 12.916v-2.899c0-1.113-.98-2.017-2.18-2.017H6.18C4.98 8 4 8.904 4 10.017v11.965c0 1.113.98 2.017 2.18 2.017h13.371c1.2 0 2.18-.904 2.18-2.017V19.06L28 22.724V9.275l-6.269 3.641z"/></symbol><symbol id="icon--error" viewBox="0 0 32 32"><path d="M17.052 17.051v-6.41h-2.103v6.41h2.103zm0 4.307v-2.154h-2.103v2.154h2.103zM16 5.333c5.909 0 10.667 4.758 10.667 10.667S21.909 26.667 16 26.667 5.333 21.909 5.333 16 10.091 5.333 16 5.333z"/></symbol><symbol id="icon--info" viewBox="0 0 32 32"><path d="M17.052 12.794V10.64h-2.103v2.154h2.103zm0 8.564v-6.41h-2.103v6.41h2.103zM16 5.333c5.909 0 10.667 4.758 10.667 10.667S21.909 26.667 16 26.667 5.333 21.909 5.333 16 10.091 5.333 16 5.333z"/></symbol><symbol id="icon--notifications" viewBox="0 0 32 32"><path d="M16.267 4a1.8 1.8 0 00-1.8 1.8v.834c-3.104.8-5.4 3.611-5.4 6.966v7.2l-2.4 2.4v1.2h19.2v-1.2l-2.4-2.4v-7.2c0-3.354-2.296-6.165-5.4-6.966V5.8a1.8 1.8 0 00-1.8-1.8zm-2.4 21.6c0 1.32 1.08 2.4 2.4 2.4s2.4-1.08 2.4-2.4h-4.8z"/></symbol><symbol id="icon--timelapse" viewBox="0 0 32 32"><path d="M16 24.563c4.707 0 8.563-3.856 8.563-8.563S20.707 7.437 16 7.437c-4.707 0-8.563 3.856-8.563 8.563s3.856 8.563 8.563 8.563zm0-19.23c5.909 0 10.667 4.758 10.667 10.667S21.909 26.667 16 26.667 5.333 21.909 5.333 16 10.091 5.333 16 5.333zm4.507 6.159c2.504 2.504 2.554 6.51.05 9.014s-6.56 2.504-9.064 0L16 15.999v-6.41c1.653 0 3.255.651 4.507 1.903z"/></symbol><symbol id="icon--tips" viewBox="0 0 32 32"><path d="M15.942 4.002c-4.399.133-8.133 3.733-8.266 8-.133 2.933 1.2 5.466 3.333 7.066.933.667 1.466 1.867 1.466 2.933h7.199c0-1.067.534-2.133 1.333-2.933 2.133-1.466 3.466-4 3.466-6.666 0-4.666-3.867-8.532-8.532-8.399l.001-.001zm-3.466 19.199v1.2c0 1.466.8 2 1.867 2.266.266.8.933 1.333 1.733 1.333s1.466-.534 1.733-1.333c1.067-.266 1.867-.8 1.867-2.266v-1.2h-7.2z"/></symbol><symbol id="icon--warning" viewBox="0 0 32 32"><path d="M28.845 26.667L16.022 5.334 3.199 26.667h25.645zm-11.657-2.332h-2.331v-2.331h2.331v2.331zm0-4.663h-2.331v-6.994h2.331v6.994z"/></symbol><symbol id="icon--android" viewBox="0 0 32 32"><path d="M18.985 9.016V7.985h-.984v1.031h.984zm-5.017 0V7.985h-.984v1.031h.984zM19.5 6.157a5.97 5.97 0 012.485 4.829H9.984c0-1.968.938-3.75 2.438-4.829L11.11 4.845c-.187-.187-.187-.516 0-.704s.516-.187.704 0l1.5 1.5c.797-.422 1.734-.657 2.672-.657s1.828.235 2.626.657l1.5-1.5c.187-.187.516-.187.704 0s.187.516 0 .704l-1.315 1.312zm4.97 5.859c.844 0 1.5.657 1.5 1.5v6.986c0 .844-.657 1.5-1.5 1.5s-1.5-.657-1.5-1.5v-6.986c0-.844.657-1.5 1.5-1.5zm-16.97 0c.844 0 1.5.657 1.5 1.5v6.986c0 .844-.657 1.5-1.5 1.5s-1.5-.657-1.5-1.5v-6.986c0-.844.657-1.5 1.5-1.5zm2.484 9.985v-9.985h12.001v9.985a.96.96 0 01-.984.984H19.97v3.516c0 .844-.657 1.5-1.5 1.5s-1.5-.657-1.5-1.5v-3.516h-1.968v3.516c0 .844-.657 1.5-1.5 1.5s-1.5-.657-1.5-1.5v-3.516h-1.031a.96.96 0 01-.984-.984h-.005z"/></symbol><symbol id="icon--apple" viewBox="0 0 32 32"><path d="M25.956 21.525c-.361 1.139-.938 2.351-1.774 3.605-1.24 1.889-2.481 2.827-3.706 2.827-.49 0-1.154-.158-2.019-.462-.851-.318-1.586-.462-2.177-.462-.577 0-1.27.158-2.048.476-.794.331-1.428.49-1.904.49-1.485 0-2.913-1.255-4.341-3.736-1.399-2.481-2.12-4.889-2.12-7.255 0-2.207.548-3.995 1.629-5.394 1.081-1.385 2.437-2.077 4.097-2.077.707 0 1.544.144 2.553.433.995.289 1.659.433 1.99.433.418 0 1.111-.158 2.062-.49.952-.318 1.788-.49 2.495-.49 1.154 0 2.177.318 3.073.938.505.346 1.01.837 1.5 1.442-.75.635-1.298 1.198-1.644 1.701a5.127 5.127 0 00-.938 2.985c0 1.183.331 2.264.995 3.217s1.428 1.557 2.279 1.818h-.002zM20.533 4.607c0 .591-.144 1.255-.418 1.961a5.894 5.894 0 01-1.342 1.99c-.519.519-1.038.866-1.557 1.038-.331.101-.822.187-1.5.246.029-1.428.404-2.669 1.125-3.706s1.933-1.746 3.605-2.135c.029.13.058.23.072.318 0 .101.014.187.014.289z"/></symbol><symbol id="icon--social-facebook" viewBox="0 0 32 32"><path d="M25.49 5.333H6.51c-.65 0-1.177.527-1.177 1.177v18.98c0 .65.527 1.177 1.177 1.177h10.217v-8.262h-2.782v-3.218h2.782v-2.378c0-2.754 1.683-4.254 4.142-4.254 1.178 0 2.19.086 2.486.126v2.88h-1.707c-1.334 0-1.593.641-1.593 1.574v2.054h3.186l-.414 3.226h-2.773v8.251h5.435c.651 0 1.178-.526 1.178-1.177V6.509c0-.65-.526-1.177-1.177-1.177z"/></symbol><symbol id="icon--social-googleplus" viewBox="0 0 32 32"><path d="M10.665 14.663v3.201h5.298c-.212 1.375-1.601 4.027-5.294 4.027-3.183 0-5.782-2.64-5.782-5.895 0-3.253 2.593-5.893 5.779-5.893 1.815 0 3.03.774 3.722 1.44l2.534-2.437c-1.625-1.522-3.735-2.438-6.252-2.438-5.166-.003-9.336 4.177-9.336 9.329s4.173 9.332 9.332 9.332c5.39 0 8.961-3.787 8.961-9.119 0-.612-.066-1.082-.147-1.546l-8.815.001zm20.002 0h-2.668v-2.668h-2.668v2.668h-2.667v2.666h2.669v2.669h2.676v-2.669h2.658v-2.666z"/></symbol><symbol id="icon--social-instagram" viewBox="0 0 32 32"><path d="M16 5.333c-2.897 0-3.259.014-4.397.064-1.136.054-1.909.232-2.589.496-.702.272-1.297.638-1.889 1.23s-.959 1.187-1.23 1.89c-.264.68-.443 1.454-.496 2.589-.054 1.138-.064 1.499-.064 4.397s.014 3.259.064 4.397c.054 1.135.232 1.91.496 2.589.272.701.638 1.297 1.23 1.889s1.187.959 1.889 1.23c.681.263 1.454.443 2.589.496 1.138.054 1.499.064 4.397.064s3.259-.014 4.397-.064c1.135-.054 1.91-.233 2.589-.496.701-.272 1.297-.638 1.889-1.23s.959-1.186 1.23-1.889c.263-.68.443-1.454.496-2.589.054-1.138.064-1.499.064-4.397s-.014-3.259-.064-4.397c-.054-1.135-.233-1.91-.496-2.589-.272-.702-.638-1.297-1.23-1.889s-1.186-.959-1.889-1.23c-.68-.264-1.454-.443-2.589-.496-1.138-.054-1.499-.064-4.397-.064zm0 1.92c2.847 0 3.186.014 4.311.063 1.04.049 1.605.222 1.979.369.499.193.854.424 1.229.797.373.374.603.728.797 1.227.146.375.32.939.367 1.979.05 1.126.062 1.463.062 4.311s-.014 3.186-.066 4.311c-.054 1.04-.227 1.605-.374 1.979a3.395 3.395 0 01-.799 1.229 3.348 3.348 0 01-1.226.797c-.374.146-.946.32-1.986.367-1.133.05-1.466.062-4.319.062s-3.187-.014-4.319-.066c-1.041-.054-1.614-.227-1.987-.374a3.301 3.301 0 01-1.226-.799 3.245 3.245 0 01-.8-1.226c-.146-.374-.319-.946-.374-1.986-.04-1.12-.054-1.466-.054-4.305s.014-3.187.054-4.321c.054-1.04.226-1.613.374-1.986.186-.506.426-.854.8-1.227.373-.373.72-.613 1.226-.798.374-.147.934-.321 1.974-.374 1.134-.04 1.466-.054 4.319-.054l.04.026L16 7.253zm0 3.269a5.477 5.477 0 100 10.954 5.477 5.477 0 000-10.954zm0 9.032a3.554 3.554 0 113.555-3.555A3.554 3.554 0 0116 19.554zm6.974-9.248a1.281 1.281 0 01-2.56 0 1.28 1.28 0 012.56 0z"/></symbol><symbol id="icon--social-line-alt" viewBox="0 0 32 32"><path d="M27.999 13.739c0-5.369-5.383-9.739-12-9.739s-12 4.364-12 9.739c0 4.815 4.27 8.846 10.038 9.607.391.085.92.257 1.058.591a2.445 2.445 0 01.037 1.101c-.03.153-.138.831-.167 1.013-.053.304-.23 1.187 1.04.646s6.902-4.07 9.433-6.968C27.168 17.822 28 15.887 28 13.738l-.001.002zm-16.235 2.867a.23.23 0 01-.23.23H8.167a.231.231 0 01-.16-.065.228.228 0 01-.065-.16v-5.233a.23.23 0 01.23-.23h.842a.23.23 0 01.23.23v4.152h2.287a.23.23 0 01.23.23l.003.845zm2.029 0a.23.23 0 01-.23.23h-.844a.23.23 0 01-.23-.23v-5.229a.23.23 0 01.23-.23h.842a.23.23 0 01.23.23l.003 5.229zm5.793 0a.23.23 0 01-.23.23h-.842a.266.266 0 01-.061 0h-.029a.2.2 0 01-.059-.057l-2.4-3.24v3.106a.23.23 0 01-.23.23h-.842a.23.23 0 01-.23-.23v-5.268a.23.23 0 01.23-.23h.969l.014.014.018.023 2.397 3.237v-3.106a.23.23 0 01.23-.23h.842a.23.23 0 01.23.23l-.007 5.292zm4.659-4.385a.23.23 0 01-.23.23h-2.301v.884h2.287a.23.23 0 01.23.23v.842a.23.23 0 01-.23.23h-2.287v.884h2.287a.23.23 0 01.23.23v.842a.23.23 0 01-.23.23h-3.362a.231.231 0 01-.16-.065.228.228 0 01-.065-.16v-5.221c0-.062.025-.118.065-.16a.227.227 0 01.161-.066h3.363a.23.23 0 01.23.23l.012.841z"/></symbol><symbol id="icon--social-line" viewBox="0 0 32 32"><path d="M9.2 5.333a3.88 3.88 0 00-3.867 3.866v13.6A3.88 3.88 0 009.2 26.665h13.6a3.88 3.88 0 003.866-3.866v-13.6A3.88 3.88 0 0022.8 5.332H9.2zm6.8 2.4c4.871 0 8.834 3.213 8.834 7.167 0 1.583-.621 3.029-1.9 4.434-1.854 2.134-5.992 4.738-6.934 5.134s-.804-.275-.766-.5c.021-.134.134-.734.134-.734.029-.225.058-.575-.034-.8-.1-.246-.479-.371-.766-.434-4.246-.562-7.4-3.558-7.4-7.1 0-3.954 3.962-7.167 8.834-7.167h-.001zM10.066 12.8a.476.476 0 00-.466.466v3.366c0 .246.213.434.466.434h1.766c.254 0 .434-.187.434-.434s-.179-.466-.434-.466h-1.3v-2.9a.476.476 0 00-.466-.466zm3.334 0a.476.476 0 00-.466.466v3.366c0 .246.213.434.466.434s.466-.187.466-.434v-3.366a.476.476 0 00-.466-.466zm1.966 0c-.046 0-.087.017-.134.034a.461.461 0 00-.3.434v3.366c0 .246.192.434.434.434a.426.426 0 00.434-.434v-2.1l1.734 2.366a.393.393 0 00.334.166.57.57 0 00.166-.034.413.413 0 00.3-.4v-3.366c0-.246-.225-.466-.466-.466s-.434.221-.434.466v2.066l-1.7-2.334a.487.487 0 00-.366-.2l-.001.001zm4.468 0a.476.476 0 00-.466.466v3.366c0 .246.213.434.466.434h1.734c.254 0 .466-.187.466-.434s-.213-.466-.466-.466h-1.3V15.4h1.3c.254 0 .466-.221.466-.466s-.213-.434-.466-.434h-1.3v-.8h1.3c.254 0 .466-.187.466-.434s-.213-.466-.466-.466h-1.734z"/></symbol><symbol id="icon--social-rss" viewBox="0 0 32 32"><path d="M22.4 26.666C22.4 17.304 14.697 9.6 5.335 9.6V5.334c11.702 0 21.333 9.631 21.333 21.333l-4.268-.001zM8.259 20.813a2.932 2.932 0 012.927 2.929 2.936 2.936 0 01-2.934 2.925c-1.611 0-2.918-1.31-2.918-2.925s1.311-2.928 2.926-2.929zm11.216 5.853h-4.146c0-5.483-4.511-9.995-9.994-9.995v-4.146c7.758 0 14.141 6.386 14.141 14.142l-.001-.001z"/></symbol><symbol id="icon--social-twitter" viewBox="0 0 32 32"><path d="M27.953 8.99a9.991 9.991 0 01-2.825.775 4.952 4.952 0 002.162-2.723c-.951.555-2.005.959-3.127 1.184a4.92 4.92 0 00-8.384 4.482c-4.09-.193-7.715-2.157-10.141-5.126a4.822 4.822 0 00-.666 2.475c0 1.71.87 3.213 2.188 4.095a4.904 4.904 0 01-2.228-.616v.061a4.923 4.923 0 003.946 4.827 4.996 4.996 0 01-2.212.085 4.937 4.937 0 004.604 3.417 9.866 9.866 0 01-6.102 2.105c-.39 0-.779-.023-1.17-.067a13.995 13.995 0 007.556 2.209c9.053 0 13.999-7.496 13.999-13.985 0-.209 0-.42-.015-.63a9.936 9.936 0 002.46-2.548l-.047-.02v.002z"/></symbol><symbol id="icon--social-whatsapp" viewBox="0 0 32 32"><path d="M23.479 8.434a10.491 10.491 0 00-7.481-3.101c-5.831 0-10.574 4.743-10.574 10.57a10.496 10.496 0 001.41 5.285l-1.501 5.479 5.608-1.472a10.583 10.583 0 005.053 1.29h.004c5.827 0 10.57-4.743 10.574-10.574 0-2.824-1.096-5.479-3.093-7.477zm-2.308 11.248c-.219.616-1.298 1.212-1.782 1.253-.488.045-.943.219-3.172-.657-2.688-1.058-4.383-3.813-4.516-3.99-.133-.174-1.075-1.431-1.075-2.73 0-1.303.682-1.94.922-2.204a.98.98 0 01.707-.331c.174 0 .352 0 .504.008.191.004.397.017.595.455.236.521.749 1.828.815 1.96s.112.29.021.463c-.087.178-.133.285-.26.442-.133.153-.277.343-.397.459-.133.133-.269.277-.116.541s.682 1.129 1.468 1.828c1.009.901 1.861 1.178 2.125 1.311s.418.112.571-.066c.157-.174.661-.769.839-1.034.174-.264.352-.219.591-.133.244.087 1.543.728 1.807.86s.438.198.504.306c.066.112.066.641-.153 1.257l.002.002z"/></symbol><symbol id="icon--social-youtube" viewBox="0 0 32 32"><path d="M27.499 10.59a3.024 3.024 0 00-2.068-2.084l-.021-.005C23.54 8 16.01 8 16.01 8s-7.51-.01-9.4.501a3.024 3.024 0 00-2.084 2.068l-.005.021c-.332 1.711-.522 3.679-.522 5.691v.122-.006.095c0 2.012.19 3.979.553 5.886l-.031-.195a3.024 3.024 0 002.068 2.084l.021.005c1.869.502 9.4.502 9.4.502s7.509 0 9.4-.502a3.024 3.024 0 002.084-2.068l.005-.021c.319-1.675.501-3.604.501-5.574l-.001-.223v.011l.001-.233a31.4 31.4 0 00-.531-5.767l.03.194v-.001zm-13.892 9.4v-7.196l6.266 3.604-6.266 3.592z"/></symbol></svg>